<?xml version="1.0" encoding="UTF-8"?>
<!DOCTYPE svg PUBLIC "-//W3C//DTD SVG 1.1//EN" "http://www.w3.org/Graphics/SVG/1.1/DTD/svg11.dtd">
<svg xmlns="http://www.w3.org/2000/svg" version="1.1" width="750px" height="750px" style="shape-rendering:geometricPrecision; text-rendering:geometricPrecision; image-rendering:optimizeQuality; fill-rule:evenodd; clip-rule:evenodd" xmlns:xlink="http://www.w3.org/1999/xlink">
<g><path style="opacity:0.93" fill="#020200" d="M 340.5,25.5 C 342.167,25.5 343.833,25.5 345.5,25.5C 345.5,26.5 345.5,27.5 345.5,28.5C 347.854,28.838 350.187,29.338 352.5,30C 353.337,31.0113 353.67,32.1779 353.5,33.5C 355.861,33.6741 358.194,34.0074 360.5,34.5C 360.5,35.5 360.5,36.5 360.5,37.5C 364.349,37.0193 366.349,38.686 366.5,42.5C 369.206,42.5751 371.873,42.9084 374.5,43.5C 374.5,44.5 374.5,45.5 374.5,46.5C 375.552,46.3505 376.552,46.5172 377.5,47C 379.092,49.2184 381.092,50.885 383.5,52C 384.337,53.0113 384.67,54.1779 384.5,55.5C 385.5,55.5 386.5,55.5 387.5,55.5C 387.33,56.8221 387.663,57.9887 388.5,59C 390.74,59.977 393.073,60.477 395.5,60.5C 395.5,61.5 395.5,62.5 395.5,63.5C 399.833,63.1667 401.833,65.1667 401.5,69.5C 402.5,69.5 403.5,69.5 404.5,69.5C 404.993,71.8056 405.326,74.139 405.5,76.5C 407.167,76.5 408.833,76.5 410.5,76.5C 410.5,78.1667 410.5,79.8333 410.5,81.5C 411.5,81.5 412.5,81.5 413.5,81.5C 413.963,84.4824 414.296,87.4824 414.5,90.5C 416.604,90.2011 418.604,90.5344 420.5,91.5C 421.921,95.0278 422.588,98.6945 422.5,102.5C 423.5,102.5 424.5,102.5 425.5,102.5C 425.5,103.833 425.5,105.167 425.5,106.5C 426.5,106.5 427.5,106.5 428.5,106.5C 428.9,111.565 429.733,116.565 431,121.5C 431.991,122.939 433.324,123.939 435,124.5C 435.499,128.486 435.666,132.486 435.5,136.5C 436.5,136.5 437.5,136.5 438.5,136.5C 438.326,144.074 438.993,151.574 440.5,159C 438.929,168.771 438.263,178.605 438.5,188.5C 437.5,188.5 436.5,188.5 435.5,188.5C 435.276,192.179 434.942,195.846 434.5,199.5C 433.5,199.5 432.5,199.5 431.5,199.5C 430.849,206.094 429.349,212.427 427,218.5C 426.335,223.156 425.835,227.823 425.5,232.5C 424.5,232.5 423.5,232.5 422.5,232.5C 423.34,236.539 422.007,239.539 418.5,241.5C 417.571,242.689 417.238,244.022 417.5,245.5C 416.5,245.5 415.5,245.5 414.5,245.5C 413.728,249.452 413.395,253.452 413.5,257.5C 412.5,257.5 411.5,257.5 410.5,257.5C 410.149,260.238 409.482,262.904 408.5,265.5C 407.675,266.386 406.675,266.719 405.5,266.5C 405.5,273.167 405.5,279.833 405.5,286.5C 406.5,286.5 407.5,286.5 408.5,286.5C 408.019,290.349 409.686,292.349 413.5,292.5C 413.251,296.297 414.918,298.631 418.5,299.5C 420.126,297.548 422.126,296.214 424.5,295.5C 424.351,294.448 424.517,293.448 425,292.5C 430.186,289.5 433.686,285.167 435.5,279.5C 437.736,277.506 440.069,275.673 442.5,274C 443.071,272.795 443.738,271.628 444.5,270.5C 448.5,269.833 450.833,267.5 451.5,263.5C 454.168,261.264 456.835,258.93 459.5,256.5C 460.246,255.264 460.579,253.93 460.5,252.5C 461.5,252.5 462.5,252.5 463.5,252.5C 463.351,251.448 463.517,250.448 464,249.5C 466.167,248 468,246.167 469.5,244C 470.448,243.517 471.448,243.351 472.5,243.5C 473.442,240.58 474.776,237.914 476.5,235.5C 478.914,233.776 481.58,232.442 484.5,231.5C 484.351,230.448 484.517,229.448 485,228.5C 487.167,227 489,225.167 490.5,223C 491.448,222.517 492.448,222.351 493.5,222.5C 493.651,218.686 495.651,217.019 499.5,217.5C 499.5,216.5 499.5,215.5 499.5,214.5C 509.833,213.167 520.167,213.167 530.5,214.5C 530.281,215.675 530.614,216.675 531.5,217.5C 533.167,218.167 534.833,218.833 536.5,219.5C 537.386,220.325 537.719,221.325 537.5,222.5C 538.552,222.351 539.552,222.517 540.5,223C 542,225.167 543.833,227 546,228.5C 546.49,229.793 546.657,231.127 546.5,232.5C 547.5,232.5 548.5,232.5 549.5,232.5C 552.022,242.847 552.022,253.18 549.5,263.5C 548.5,263.5 547.5,263.5 546.5,263.5C 546.662,265.527 546.495,267.527 546,269.5C 543.833,271 542,272.833 540.5,275C 539.552,275.483 538.552,275.649 537.5,275.5C 535.776,277.914 534.442,280.58 533.5,283.5C 532.448,283.351 531.448,283.517 530.5,284C 526.939,287.561 523.439,291.061 520,294.5C 518.887,298.088 517.387,301.422 515.5,304.5C 512.728,304.595 510.728,305.929 509.5,308.5C 506.287,308.722 504.454,310.388 504,313.5C 500.167,316 497,319.167 494.5,323C 493.552,323.483 492.552,323.649 491.5,323.5C 491.66,325.199 491.494,326.866 491,328.5C 487.648,333.257 483.481,337.257 478.5,340.5C 477.614,341.325 477.281,342.325 477.5,343.5C 474.671,343.325 473.004,344.658 472.5,347.5C 470.204,349.761 467.704,351.761 465,353.5C 464.517,354.448 464.351,355.448 464.5,356.5C 463.178,356.33 462.011,356.663 461,357.5C 460.023,359.74 459.523,362.073 459.5,364.5C 458.448,364.351 457.448,364.517 456.5,365C 454.761,367.704 452.761,370.204 450.5,372.5C 448.696,373.768 446.696,374.435 444.5,374.5C 444.649,375.552 444.483,376.552 444,377.5C 441.833,379 440,380.833 438.5,383C 437.552,383.483 436.552,383.649 435.5,383.5C 435.167,385.5 434.833,387.5 434.5,389.5C 433.5,389.5 432.5,389.5 431.5,389.5C 431.981,393.349 430.314,395.349 426.5,395.5C 426.649,396.552 426.483,397.552 426,398.5C 423.833,400 422,401.833 420.5,404C 419.552,404.483 418.552,404.649 417.5,404.5C 415.776,406.914 414.442,409.58 413.5,412.5C 410.58,413.442 407.914,414.776 405.5,416.5C 405.374,419.468 403.874,421.468 401,422.5C 399.71,426.571 397.877,430.238 395.5,433.5C 396.833,433.5 398.167,433.5 399.5,433.5C 399.5,434.5 399.5,435.5 399.5,436.5C 403.645,437.219 407.812,437.885 412,438.5C 416.188,437.885 420.355,437.219 424.5,436.5C 424.674,434.139 425.007,431.806 425.5,429.5C 430.065,429.95 433.065,428.116 434.5,424C 435.448,423.517 436.448,423.351 437.5,423.5C 437.5,422.5 437.5,421.5 437.5,420.5C 442.716,420.798 446.383,418.632 448.5,414C 453.435,412.733 458.435,411.9 463.5,411.5C 463.5,410.5 463.5,409.5 463.5,408.5C 464.833,408.5 466.167,408.5 467.5,408.5C 467.5,406.833 467.5,405.167 467.5,403.5C 476.171,403.262 484.838,402.928 493.5,402.5C 493.5,401.5 493.5,400.5 493.5,399.5C 502.059,399.615 510.559,398.948 519,397.5C 530.78,399.088 542.613,399.755 554.5,399.5C 554.5,400.5 554.5,401.5 554.5,402.5C 561.471,403.29 568.471,403.623 575.5,403.5C 575.5,405.167 575.5,406.833 575.5,408.5C 576.833,408.5 578.167,408.5 579.5,408.5C 579.5,409.5 579.5,410.5 579.5,411.5C 582.978,411.184 586.312,411.684 589.5,413C 590.406,414.699 590.739,416.533 590.5,418.5C 595.548,418.842 600.548,419.508 605.5,420.5C 605.5,421.5 605.5,422.5 605.5,423.5C 606.833,423.5 608.167,423.5 609.5,423.5C 609.5,427.5 611.5,429.5 615.5,429.5C 615.5,430.5 615.5,431.5 615.5,432.5C 618.206,432.575 620.873,432.908 623.5,433.5C 623.626,436.468 625.126,438.468 628,439.5C 628.959,445.625 632.459,449.292 638.5,450.5C 639.926,452.937 641.259,455.437 642.5,458C 647.251,458.25 649.917,460.75 650.5,465.5C 654.09,467.817 655.423,471.151 654.5,475.5C 660.237,478.649 662.57,483.649 661.5,490.5C 656.251,490.246 653.251,492.746 652.5,498C 650.187,498.662 647.854,499.162 645.5,499.5C 645.594,502.541 644.094,504.207 641,504.5C 640.023,506.74 639.523,509.073 639.5,511.5C 638.167,511.5 636.833,511.5 635.5,511.5C 635.5,512.5 635.5,513.5 635.5,514.5C 631.881,515.244 628.215,515.577 624.5,515.5C 624.349,519.314 622.349,520.981 618.5,520.5C 618.5,521.5 618.5,522.5 618.5,523.5C 615.459,523.406 613.793,524.906 613.5,528C 611.187,528.662 608.854,529.162 606.5,529.5C 606.5,530.5 606.5,531.5 606.5,532.5C 602.466,532.505 598.466,532.838 594.5,533.5C 594.5,534.5 594.5,535.5 594.5,536.5C 593.167,536.5 591.833,536.5 590.5,536.5C 590.5,537.5 590.5,538.5 590.5,539.5C 582.833,540.167 575.167,540.833 567.5,541.5C 567.5,542.5 567.5,543.5 567.5,544.5C 558.482,544.448 549.482,544.782 540.5,545.5C 540.5,546.5 540.5,547.5 540.5,548.5C 538.167,548.5 535.833,548.5 533.5,548.5C 533.5,547.5 533.5,546.5 533.5,545.5C 523.171,545.049 512.838,544.716 502.5,544.5C 502.67,543.178 502.337,542.011 501.5,541C 498.937,539.921 496.271,539.421 493.5,539.5C 493.5,538.5 493.5,537.5 493.5,536.5C 490.5,536.5 487.5,536.5 484.5,536.5C 484.5,535.167 484.5,533.833 484.5,532.5C 483.5,532.5 482.5,532.5 481.5,532.5C 481.5,531.5 481.5,530.5 481.5,529.5C 475.766,530.08 471.099,528.246 467.5,524C 466.207,523.51 464.873,523.343 463.5,523.5C 463.67,522.178 463.337,521.011 462.5,520C 460.26,519.023 457.927,518.523 455.5,518.5C 455.5,517.5 455.5,516.5 455.5,515.5C 452.01,515.849 449.677,514.349 448.5,511C 445.077,511.145 443.077,509.645 442.5,506.5C 441.5,506.5 440.5,506.5 439.5,506.5C 439.5,505.5 439.5,504.5 439.5,503.5C 437.833,503.5 436.167,503.5 434.5,503.5C 434.5,501.5 434.5,499.5 434.5,497.5C 431.51,496.241 428.51,494.908 425.5,493.5C 425.5,492.5 425.5,491.5 425.5,490.5C 422.367,489.881 419.867,488.214 418,485.5C 416.234,484.767 414.401,484.433 412.5,484.5C 412.773,482.549 412.107,481.049 410.5,480C 405.177,479.501 399.844,479.334 394.5,479.5C 394.5,478.5 394.5,477.5 394.5,476.5C 391.833,476.5 389.167,476.5 386.5,476.5C 386.5,475.5 386.5,474.5 386.5,473.5C 382.314,473.889 379.314,472.222 377.5,468.5C 376.264,467.754 374.93,467.421 373.5,467.5C 373.5,466.5 373.5,465.5 373.5,464.5C 370.728,464.405 368.728,463.071 367.5,460.5C 363.713,464.461 360.046,468.628 356.5,473C 355.552,473.483 354.552,473.649 353.5,473.5C 353.5,474.5 353.5,475.5 353.5,476.5C 349.742,478.421 346.742,481.255 344.5,485C 340.726,486.399 339.06,489.232 339.5,493.5C 336.671,493.325 335.004,494.658 334.5,497.5C 332.204,499.761 329.704,501.761 327,503.5C 326.517,504.448 326.351,505.448 326.5,506.5C 325.5,506.5 324.5,506.5 323.5,506.5C 323.719,507.675 323.386,508.675 322.5,509.5C 320.264,511.494 317.931,513.327 315.5,515C 313.761,517.704 311.761,520.204 309.5,522.5C 308.675,523.386 307.675,523.719 306.5,523.5C 306.657,524.873 306.49,526.207 306,527.5C 303.833,529 302,530.833 300.5,533C 299.552,533.483 298.552,533.649 297.5,533.5C 297.657,537.769 295.657,540.269 291.5,541C 290.468,543.874 288.468,545.374 285.5,545.5C 285.374,548.468 283.874,550.468 281,551.5C 279.71,555.571 277.877,559.238 275.5,562.5C 272.58,563.442 269.914,564.776 267.5,566.5C 266.558,569.42 265.224,572.086 263.5,574.5C 262.448,574.351 261.448,574.517 260.5,575C 259,577.167 257.167,579 255,580.5C 254.517,581.448 254.351,582.448 254.5,583.5C 251.58,584.442 248.914,585.776 246.5,587.5C 246.849,590.99 245.349,593.323 242,594.5C 241.494,597.671 239.828,600.004 237,601.5C 236.517,602.448 236.351,603.448 236.5,604.5C 231.227,605.927 227.227,609.094 224.5,614C 220.726,615.399 219.06,618.232 219.5,622.5C 216.5,622.167 215.167,623.5 215.5,626.5C 211.742,628.421 208.742,631.255 206.5,635C 205.552,635.483 204.552,635.649 203.5,635.5C 203.719,636.675 203.386,637.675 202.5,638.5C 200.264,640.494 197.931,642.327 195.5,644C 193.761,646.704 191.761,649.204 189.5,651.5C 188.675,652.386 187.675,652.719 186.5,652.5C 186.61,655.059 185.944,657.392 184.5,659.5C 182.264,661.494 179.931,663.327 177.5,665C 175.761,667.704 173.761,670.204 171.5,672.5C 169.696,673.768 167.696,674.435 165.5,674.5C 165.374,677.468 163.874,679.468 161,680.5C 161.145,683.923 159.645,685.923 156.5,686.5C 156.649,687.552 156.483,688.552 156,689.5C 153.833,691 152,692.833 150.5,695C 149.552,695.483 148.552,695.649 147.5,695.5C 147.649,696.552 147.483,697.552 147,698.5C 144.833,700 143,701.833 141.5,704C 140.552,704.483 139.552,704.649 138.5,704.5C 136.776,706.914 135.442,709.58 134.5,712.5C 130.519,713.021 126.519,713.354 122.5,713.5C 122.5,714.5 122.5,715.5 122.5,716.5C 116.5,716.5 110.5,716.5 104.5,716.5C 104.5,715.5 104.5,714.5 104.5,713.5C 101.14,713.384 97.8067,713.051 94.5,712.5C 92.5787,708.742 89.7454,705.742 86,703.5C 85.5172,702.552 85.3505,701.552 85.5,700.5C 83.8762,700.64 82.7096,699.973 82,698.5C 81.4978,695.487 80.9978,692.487 80.5,689.5C 79.5,689.5 78.5,689.5 77.5,689.5C 77.5,683.833 77.5,678.167 77.5,672.5C 78.5,672.5 79.5,672.5 80.5,672.5C 79.9203,666.766 81.7537,662.099 86,658.5C 86.4828,657.552 86.6495,656.552 86.5,655.5C 88.9138,653.776 91.5804,652.442 94.5,651.5C 94.6261,648.532 96.1261,646.532 99,645.5C 100.29,641.429 102.123,637.762 104.5,634.5C 106.696,634.435 108.696,633.768 110.5,632.5C 112.005,630.496 113.672,628.663 115.5,627C 116.148,625.56 116.481,624.06 116.5,622.5C 117.552,622.649 118.552,622.483 119.5,622C 121,619.833 122.833,618 125,616.5C 125.483,615.552 125.649,614.552 125.5,613.5C 126.5,613.5 127.5,613.5 128.5,613.5C 128.351,612.448 128.517,611.448 129,610.5C 131.218,608.908 132.885,606.908 134,604.5C 135.011,603.663 136.178,603.33 137.5,603.5C 137.281,602.325 137.614,601.325 138.5,600.5C 140.656,598.427 142.989,596.76 145.5,595.5C 145.325,592.671 146.658,591.004 149.5,590.5C 151.808,588.197 153.808,585.697 155.5,583C 159.274,581.601 160.94,578.768 160.5,574.5C 163.329,574.675 164.996,573.342 165.5,570.5C 169.5,569.833 171.833,567.5 172.5,563.5C 176.522,559.728 180.688,556.061 185,552.5C 185.483,551.552 185.649,550.552 185.5,549.5C 186.5,549.5 187.5,549.5 188.5,549.5C 188.019,545.651 189.686,543.651 193.5,543.5C 193.626,540.532 195.126,538.532 198,537.5C 198.731,533.343 201.231,531.343 205.5,531.5C 205.351,530.448 205.517,529.448 206,528.5C 208.167,527 210,525.167 211.5,523C 212.448,522.517 213.448,522.351 214.5,522.5C 214.626,519.532 216.126,517.532 219,516.5C 220.29,512.429 222.123,508.762 224.5,505.5C 226.914,503.776 229.58,502.442 232.5,501.5C 232.921,499.09 234.254,497.257 236.5,496C 235.692,494.294 234.359,493.461 232.5,493.5C 232.5,492.5 232.5,491.5 232.5,490.5C 230.876,490.64 229.71,489.973 229,488.5C 228.172,484.534 227.672,480.534 227.5,476.5C 226.5,476.5 225.5,476.5 224.5,476.5C 224.67,475.178 224.337,474.011 223.5,473C 220.854,472.503 218.187,472.336 215.5,472.5C 215.5,471.5 215.5,470.5 215.5,469.5C 212.784,469.322 210.117,468.822 207.5,468C 206.027,467.29 205.36,466.124 205.5,464.5C 201.189,465.464 198.189,463.964 196.5,460C 194.782,459.654 193.115,459.154 191.5,458.5C 190.079,454.652 187.912,451.318 185,448.5C 184.506,446.866 184.34,445.199 184.5,443.5C 181.794,443.425 179.127,443.092 176.5,442.5C 176.649,441.448 176.483,440.448 176,439.5C 172.519,435.968 170.686,431.635 170.5,426.5C 168.696,425.232 166.696,424.565 164.5,424.5C 164.058,420.846 163.724,417.179 163.5,413.5C 162.178,413.67 161.011,413.337 160,412.5C 158.734,408.605 158.234,404.605 158.5,400.5C 157.5,400.5 156.5,400.5 155.5,400.5C 155.276,396.821 154.942,393.154 154.5,389.5C 153.5,389.5 152.5,389.5 151.5,389.5C 151.638,381.103 150.972,372.77 149.5,364.5C 151.47,359.888 151.47,355.388 149.5,351C 151.049,347.32 151.716,343.487 151.5,339.5C 152.5,339.5 153.5,339.5 154.5,339.5C 154.502,332.48 154.835,325.48 155.5,318.5C 156.5,318.5 157.5,318.5 158.5,318.5C 159.383,313.868 160.05,309.202 160.5,304.5C 161.5,304.5 162.5,304.5 163.5,304.5C 163.963,301.518 164.296,298.518 164.5,295.5C 165.5,295.5 166.5,295.5 167.5,295.5C 167.5,294.5 167.5,293.5 167.5,292.5C 168.675,292.719 169.675,292.386 170.5,291.5C 171.482,288.904 172.149,286.238 172.5,283.5C 175.5,283.833 176.833,282.5 176.5,279.5C 177.5,279.5 178.5,279.5 179.5,279.5C 179.019,275.651 180.686,273.651 184.5,273.5C 184.5,272.5 184.5,271.5 184.5,270.5C 188.074,269.908 190.074,271.408 190.5,275C 194.4,276.784 198.4,278.284 202.5,279.5C 203.386,280.325 203.719,281.325 203.5,282.5C 206.455,283.159 209.455,283.492 212.5,283.5C 214.224,285.914 215.558,288.58 216.5,291.5C 219.127,292.092 221.794,292.425 224.5,292.5C 224.565,294.696 225.232,296.696 226.5,298.5C 229.791,299.382 233.124,300.048 236.5,300.5C 236.5,301.833 236.5,303.167 236.5,304.5C 237.978,304.238 239.311,304.571 240.5,305.5C 241.167,307.5 242.5,308.833 244.5,309.5C 245.944,311.608 246.61,313.941 246.5,316.5C 247.5,316.5 248.5,316.5 249.5,316.5C 249.019,320.349 250.686,322.349 254.5,322.5C 255.092,325.127 255.425,327.794 255.5,330.5C 256.822,330.33 257.989,330.663 259,331.5C 259.822,334.117 260.322,336.784 260.5,339.5C 261.5,339.5 262.5,339.5 263.5,339.5C 263.5,340.5 263.5,341.5 263.5,342.5C 264.5,342.5 265.5,342.5 266.5,342.5C 266.616,345.86 266.949,349.193 267.5,352.5C 268.5,352.5 269.5,352.5 270.5,352.5C 271.035,359.183 271.702,365.85 272.5,372.5C 273.5,372.5 274.5,372.5 275.5,372.5C 275.5,378.167 275.5,383.833 275.5,389.5C 274.5,389.5 273.5,389.5 272.5,389.5C 272.495,399.552 271.828,409.552 270.5,419.5C 269.5,419.5 268.5,419.5 267.5,419.5C 267.575,425.529 267.241,431.529 266.5,437.5C 265.5,437.5 264.5,437.5 263.5,437.5C 263.5,439.5 263.5,441.5 263.5,443.5C 262.5,443.5 261.5,443.5 260.5,443.5C 260.021,447.854 259.354,452.188 258.5,456.5C 258.182,457.647 257.516,458.481 256.5,459C 258.204,461.547 260.537,463.047 263.5,463.5C 263.281,464.675 263.614,465.675 264.5,466.5C 268.287,462.539 271.954,458.372 275.5,454C 279.274,452.601 280.94,449.768 280.5,445.5C 281.5,445.5 282.5,445.5 283.5,445.5C 283.351,444.448 283.517,443.448 284,442.5C 287.745,440.258 290.579,437.258 292.5,433.5C 293.552,433.649 294.552,433.483 295.5,433C 300.342,427.287 305.342,421.787 310.5,416.5C 311.325,415.614 312.325,415.281 313.5,415.5C 313.39,412.941 314.056,410.608 315.5,408.5C 317.768,407.281 319.601,405.615 321,403.5C 322.44,402.852 323.94,402.519 325.5,402.5C 325.351,401.448 325.517,400.448 326,399.5C 328.167,398 330,396.167 331.5,394C 332.448,393.517 333.448,393.351 334.5,393.5C 334.626,390.532 336.126,388.532 339,387.5C 338.855,384.077 340.355,382.077 343.5,381.5C 343.351,380.448 343.517,379.448 344,378.5C 346.167,377 348,375.167 349.5,373C 350.448,372.517 351.448,372.351 352.5,372.5C 354.224,370.086 355.558,367.42 356.5,364.5C 357.552,364.649 358.552,364.483 359.5,364C 361,361.833 362.833,360 365,358.5C 365.483,357.552 365.649,356.552 365.5,355.5C 367.914,353.776 370.58,352.442 373.5,351.5C 373.575,348.794 373.908,346.127 374.5,343.5C 375.552,343.649 376.552,343.483 377.5,343C 379,340.833 380.833,339 383,337.5C 383.483,336.552 383.649,335.552 383.5,334.5C 387.037,334.53 389.704,333.03 391.5,330C 390.491,327.828 388.824,326.662 386.5,326.5C 386.5,325.5 386.5,324.5 386.5,323.5C 385.5,323.5 384.5,323.5 383.5,323.5C 383.657,322.127 383.49,320.793 383,319.5C 380.833,318 379,316.167 377.5,314C 376.552,313.517 375.552,313.351 374.5,313.5C 373.908,310.873 373.575,308.206 373.5,305.5C 371.876,305.64 370.71,304.973 370,303.5C 368.957,300.243 368.457,296.91 368.5,293.5C 367.5,293.5 366.5,293.5 365.5,293.5C 365.635,286.138 365.302,278.804 364.5,271.5C 361.762,271.149 359.096,270.482 356.5,269.5C 355.614,268.675 355.281,267.675 355.5,266.5C 354.5,266.5 353.5,266.5 352.5,266.5C 352.5,265.5 352.5,264.5 352.5,263.5C 349.794,263.425 347.127,263.092 344.5,262.5C 343.558,259.58 342.224,256.914 340.5,254.5C 338.833,254.5 337.167,254.5 335.5,254.5C 336.047,250.71 334.38,248.71 330.5,248.5C 329.571,247.311 329.238,245.978 329.5,244.5C 328.5,244.5 327.5,244.5 326.5,244.5C 326.756,242.088 325.756,240.421 323.5,239.5C 322.534,237.604 322.201,235.604 322.5,233.5C 320.833,233.5 319.167,233.5 317.5,233.5C 317.5,231.5 317.5,229.5 317.5,227.5C 316.5,227.5 315.5,227.5 314.5,227.5C 314.5,226.5 314.5,225.5 314.5,224.5C 313.167,224.5 311.833,224.5 310.5,224.5C 310.608,220.753 310.108,217.086 309,213.5C 307.951,211.893 306.451,211.227 304.5,211.5C 304.5,208.5 304.5,205.5 304.5,202.5C 303.5,202.5 302.5,202.5 301.5,202.5C 301.5,199.833 301.5,197.167 301.5,194.5C 299.833,194.5 298.167,194.5 296.5,194.5C 296.521,187.146 296.187,179.813 295.5,172.5C 294.5,172.5 293.5,172.5 292.5,172.5C 292.5,163.833 292.5,155.167 292.5,146.5C 291.5,146.5 290.5,146.5 289.5,146.5C 289.5,139.167 289.5,131.833 289.5,124.5C 290.5,124.5 291.5,124.5 292.5,124.5C 292.5,120.5 292.5,116.5 292.5,112.5C 293.5,112.5 294.5,112.5 295.5,112.5C 295.9,106.171 296.233,99.8376 296.5,93.5C 297.822,93.67 298.989,93.3366 300,92.5C 301.043,89.2432 301.543,85.9099 301.5,82.5C 302.5,82.5 303.5,82.5 304.5,82.5C 305.207,79.2139 305.54,75.8806 305.5,72.5C 306.822,72.67 307.989,72.3366 309,71.5C 309.977,69.26 310.477,66.9267 310.5,64.5C 311.5,64.5 312.5,64.5 313.5,64.5C 313.963,61.5176 314.296,58.5176 314.5,55.5C 316.914,53.7755 319.58,52.4422 322.5,51.5C 323.384,44.0717 327.051,38.4051 333.5,34.5C 335.467,31.2014 337.801,28.2014 340.5,25.5 Z"/></g>
<g><path style="opacity:1" fill="#47e337" d="M 341.5,38.5 C 344.167,38.8333 346.833,39.1667 349.5,39.5C 349.33,40.8221 349.663,41.9887 350.5,43C 352.81,43.4966 355.143,43.6633 357.5,43.5C 357.772,47.6637 360.106,49.497 364.5,49C 365.163,50.5185 366.163,51.6851 367.5,52.5C 368.209,53.404 369.209,53.7373 370.5,53.5C 370.5,54.5 370.5,55.5 370.5,56.5C 372.199,56.5271 373.533,57.1938 374.5,58.5C 376.571,59.8907 378.238,61.724 379.5,64C 380.793,64.49 382.127,64.6567 383.5,64.5C 383.5,65.8333 383.5,67.1667 383.5,68.5C 386.167,68.8333 388.833,69.1667 391.5,69.5C 392.107,72.0755 393.274,74.4088 395,76.5C 396.11,78.0368 397.61,78.7035 399.5,78.5C 399.5,79.8333 399.5,81.1667 399.5,82.5C 401.167,82.5 402.833,82.5 404.5,82.5C 404.185,86.3714 404.518,90.0381 405.5,93.5C 406.968,94.7791 407.635,96.4458 407.5,98.5C 409.5,98.5 411.5,98.5 413.5,98.5C 413.187,102.042 413.521,105.375 414.5,108.5C 415.968,109.779 416.635,111.446 416.5,113.5C 418.167,113.5 419.833,113.5 421.5,113.5C 421.5,117.5 421.5,121.5 421.5,125.5C 423.199,125.527 424.533,126.194 425.5,127.5C 424.756,130.95 426.09,132.616 429.5,132.5C 430.787,149.847 430.787,167.18 429.5,184.5C 428.596,185.209 428.263,186.209 428.5,187.5C 427.5,187.5 426.5,187.5 425.5,187.5C 425.5,188.833 425.5,190.167 425.5,191.5C 425.5,192.167 425.5,192.833 425.5,193.5C 424.523,196.287 424.19,199.287 424.5,202.5C 423.209,202.263 422.209,202.596 421.5,203.5C 420.793,206.786 420.46,210.119 420.5,213.5C 419.895,215.974 418.895,218.307 417.5,220.5C 417.5,221.833 417.5,223.167 417.5,224.5C 416.5,224.5 415.5,224.5 414.5,224.5C 414.579,227.271 414.079,229.937 413,232.5C 411.245,233.67 410.245,235.337 410,237.5C 408.736,239.607 406.903,240.607 404.5,240.5C 404.5,245.167 404.5,249.833 404.5,254.5C 403.178,254.33 402.011,254.663 401,255.5C 399.801,258.726 399.301,262.059 399.5,265.5C 398.514,269.97 398.181,274.637 398.5,279.5C 397.5,279.5 396.5,279.5 395.5,279.5C 395.567,280.959 395.234,282.292 394.5,283.5C 390.154,283.666 385.821,283.499 381.5,283C 380.349,280.8 378.682,279.3 376.5,278.5C 374.977,274.62 373.977,270.62 373.5,266.5C 372.194,265.533 371.527,264.199 371.5,262.5C 369.833,262.5 368.167,262.5 366.5,262.5C 364.833,262.5 363.167,262.5 361.5,262.5C 361.727,260.067 360.727,258.401 358.5,257.5C 357.194,256.533 356.527,255.199 356.5,253.5C 355.5,253.5 354.5,253.5 353.5,253.5C 352.448,253.649 351.448,253.483 350.5,253C 349.323,249.651 346.99,248.151 343.5,248.5C 343.5,247.167 343.5,245.833 343.5,244.5C 341.833,244.5 340.167,244.5 338.5,244.5C 338.5,243.5 338.5,242.5 338.5,241.5C 337.5,241.5 336.5,241.5 335.5,241.5C 335.664,238.813 335.497,236.146 335,233.5C 333.122,232.947 331.622,231.947 330.5,230.5C 330.5,229.167 330.5,227.833 330.5,226.5C 329.167,226.5 327.833,226.5 326.5,226.5C 326.802,223.941 326.468,221.607 325.5,219.5C 323.784,219.371 322.117,219.038 320.5,218.5C 319.035,215.634 318.035,212.634 317.5,209.5C 316.158,207.639 315.158,205.639 314.5,203.5C 313.791,202.596 312.791,202.263 311.5,202.5C 311.768,200.901 311.434,199.568 310.5,198.5C 310.54,195.119 310.207,191.786 309.5,188.5C 308.432,187.566 307.099,187.232 305.5,187.5C 305.821,182.305 305.487,177.305 304.5,172.5C 303.5,172.5 302.5,172.5 301.5,172.5C 300.979,161.341 300.312,150.341 299.5,139.5C 296.833,137.167 296.833,134.833 299.5,132.5C 300.296,126.65 300.963,120.65 301.5,114.5C 302.467,113.194 303.801,112.527 305.5,112.5C 305.5,108.833 305.5,105.167 305.5,101.5C 306.412,99.4048 307.579,97.4048 309,95.5C 309.455,92.1464 309.955,88.8131 310.5,85.5C 311.467,84.1938 312.801,83.5271 314.5,83.5C 314.5,82.1667 314.5,80.8333 314.5,79.5C 318.257,76.9369 319.924,73.2702 319.5,68.5C 320.833,68.5 322.167,68.5 323.5,68.5C 323.365,66.4458 324.032,64.7791 325.5,63.5C 325.738,61.5956 326.738,60.2623 328.5,59.5C 330.256,58.4479 330.923,56.7812 330.5,54.5C 330.343,53.1266 330.51,51.7932 331,50.5C 332.667,49.2668 334.167,47.9335 335.5,46.5C 336.404,45.791 336.737,44.791 336.5,43.5C 338.167,43.5 339.833,43.5 341.5,43.5C 341.5,41.8333 341.5,40.1667 341.5,38.5 Z"/></g>
<g><path style="opacity:1" fill="#226a1a" d="M 341.5,38.5 C 341.5,40.1667 341.5,41.8333 341.5,43.5C 339.833,43.5 338.167,43.5 336.5,43.5C 336.737,44.791 336.404,45.791 335.5,46.5C 335.5,45.1667 335.5,43.8333 335.5,42.5C 337.167,42.5 338.833,42.5 340.5,42.5C 340.232,40.901 340.566,39.5676 341.5,38.5 Z"/></g>
<g><path style="opacity:1" fill="#1e6118" d="M 367.5,52.5 C 368.833,52.5 370.167,52.5 371.5,52.5C 371.5,53.5 371.5,54.5 371.5,55.5C 372.5,55.5 373.5,55.5 374.5,55.5C 374.5,56.5 374.5,57.5 374.5,58.5C 373.533,57.1938 372.199,56.5271 370.5,56.5C 370.5,55.5 370.5,54.5 370.5,53.5C 369.209,53.7373 368.209,53.404 367.5,52.5 Z"/></g>
<g><path style="opacity:1" fill="#1f6519" d="M 330.5,54.5 C 330.923,56.7812 330.256,58.4479 328.5,59.5C 329.024,57.6943 329.691,56.0276 330.5,54.5 Z"/></g>
<g><path style="opacity:1" fill="#226d1b" d="M 325.5,63.5 C 324.032,64.7791 323.365,66.4458 323.5,68.5C 322.167,68.5 320.833,68.5 319.5,68.5C 320.209,67.596 321.209,67.2627 322.5,67.5C 322.5,66.1667 322.5,64.8333 322.5,63.5C 323.5,63.5 324.5,63.5 325.5,63.5 Z"/></g>
<g><path style="opacity:1" fill="#29811f" d="M 314.5,79.5 C 314.5,80.8333 314.5,82.1667 314.5,83.5C 312.801,83.5271 311.467,84.1938 310.5,85.5C 310.5,84.5 310.5,83.5 310.5,82.5C 311.5,82.5 312.5,82.5 313.5,82.5C 313.263,81.209 313.596,80.209 314.5,79.5 Z"/></g>
<g><path style="opacity:1" fill="#216719" d="M 405.5,93.5 C 406.5,93.5 407.5,93.5 408.5,93.5C 408.5,94.8333 408.5,96.1667 408.5,97.5C 410.415,97.2155 412.081,97.5489 413.5,98.5C 411.5,98.5 409.5,98.5 407.5,98.5C 407.635,96.4458 406.968,94.7791 405.5,93.5 Z"/></g>
<g><path style="opacity:1" fill="#236f1b" d="M 305.5,101.5 C 305.5,105.167 305.5,108.833 305.5,112.5C 303.801,112.527 302.467,113.194 301.5,114.5C 301.5,113.5 301.5,112.5 301.5,111.5C 302.5,111.5 303.5,111.5 304.5,111.5C 304.187,107.958 304.521,104.625 305.5,101.5 Z"/></g>
<g><path style="opacity:1" fill="#23701b" d="M 414.5,108.5 C 415.5,108.5 416.5,108.5 417.5,108.5C 417.5,109.833 417.5,111.167 417.5,112.5C 419.167,112.5 420.833,112.5 422.5,112.5C 422.5,116.5 422.5,120.5 422.5,124.5C 423.5,124.5 424.5,124.5 425.5,124.5C 425.5,125.5 425.5,126.5 425.5,127.5C 424.533,126.194 423.199,125.527 421.5,125.5C 421.5,121.5 421.5,117.5 421.5,113.5C 419.833,113.5 418.167,113.5 416.5,113.5C 416.635,111.446 415.968,109.779 414.5,108.5 Z"/></g>
<g><path style="opacity:1" fill="#21691a" d="M 299.5,132.5 C 296.833,134.833 296.833,137.167 299.5,139.5C 298.5,139.5 297.5,139.5 296.5,139.5C 296.5,137.167 296.5,134.833 296.5,132.5C 297.5,132.5 298.5,132.5 299.5,132.5 Z"/></g>
<g><path style="opacity:1" fill="#23721c" d="M 304.5,172.5 C 305.487,177.305 305.821,182.305 305.5,187.5C 307.099,187.232 308.432,187.566 309.5,188.5C 307.833,188.5 306.167,188.5 304.5,188.5C 304.5,183.167 304.5,177.833 304.5,172.5 Z"/></g>
<g><path style="opacity:1" fill="#25751d" d="M 429.5,184.5 C 429.5,185.833 429.5,187.167 429.5,188.5C 428.5,188.5 427.5,188.5 426.5,188.5C 426.737,189.791 426.404,190.791 425.5,191.5C 425.5,190.167 425.5,188.833 425.5,187.5C 426.5,187.5 427.5,187.5 428.5,187.5C 428.263,186.209 428.596,185.209 429.5,184.5 Z"/></g>
<g><path style="opacity:1" fill="#2a8521" d="M 425.5,193.5 C 425.5,196.833 425.5,200.167 425.5,203.5C 424.167,203.5 422.833,203.5 421.5,203.5C 422.209,202.596 423.209,202.263 424.5,202.5C 424.19,199.287 424.523,196.287 425.5,193.5 Z"/></g>
<g><path style="opacity:1" fill="#26791d" d="M 310.5,198.5 C 311.434,199.568 311.768,200.901 311.5,202.5C 312.791,202.263 313.791,202.596 314.5,203.5C 313.167,203.5 311.833,203.5 310.5,203.5C 310.5,201.833 310.5,200.167 310.5,198.5 Z"/></g>
<g><path style="opacity:1" fill="#226d1a" d="M 314.5,203.5 C 315.158,205.639 316.158,207.639 317.5,209.5C 316.5,209.5 315.5,209.5 314.5,209.5C 314.5,207.5 314.5,205.5 314.5,203.5 Z"/></g>
<g><path style="opacity:1" fill="#24731c" d="M 317.5,209.5 C 318.035,212.634 319.035,215.634 320.5,218.5C 319.5,218.5 318.5,218.5 317.5,218.5C 317.5,215.5 317.5,212.5 317.5,209.5 Z"/></g>
<g><path style="opacity:1" fill="#277b1e" d="M 420.5,213.5 C 420.5,215.833 420.5,218.167 420.5,220.5C 419.5,220.5 418.5,220.5 417.5,220.5C 418.895,218.307 419.895,215.974 420.5,213.5 Z"/></g>
<g><path style="opacity:1" fill="#25761d" d="M 325.5,219.5 C 326.468,221.607 326.802,223.941 326.5,226.5C 327.833,226.5 329.167,226.5 330.5,226.5C 330.5,227.833 330.5,229.167 330.5,230.5C 329.596,229.791 329.263,228.791 329.5,227.5C 328.167,227.5 326.833,227.5 325.5,227.5C 325.5,224.833 325.5,222.167 325.5,219.5 Z"/></g>
<g><path style="opacity:1" fill="#7d5633" d="M 409.5,446.5 C 409.5,447.167 409.5,447.833 409.5,448.5C 408.962,450.117 408.629,451.784 408.5,453.5C 405.833,453.5 403.167,453.5 400.5,453.5C 400.5,458.167 400.5,462.833 400.5,467.5C 401.5,467.5 402.5,467.5 403.5,467.5C 403.5,469.167 403.5,470.833 403.5,472.5C 401.088,472.306 400.088,470.973 400.5,468.5C 397.059,468.699 393.726,468.199 390.5,467C 389.663,465.989 389.33,464.822 389.5,463.5C 384.364,462.569 380.364,459.736 377.5,455C 370.842,454.5 364.175,454.334 357.5,454.5C 357.649,455.552 357.483,456.552 357,457.5C 355.287,458.878 353.953,460.545 353,462.5C 351.933,463.191 350.766,463.691 349.5,464C 346.953,466.269 344.953,468.935 343.5,472C 340.94,472.227 339.274,473.56 338.5,476C 337.552,476.483 336.552,476.649 335.5,476.5C 335.723,479.114 334.556,480.781 332,481.5C 331.608,485.072 329.941,487.739 327,489.5C 326.289,492.879 324.122,494.379 320.5,494C 318.627,496.53 316.793,499.03 315,501.5C 313.693,502.772 312.193,503.772 310.5,504.5C 309.029,507.786 307.195,510.786 305,513.5C 301.09,514.24 299.256,516.573 299.5,520.5C 298.5,520.5 297.5,520.5 296.5,520.5C 296.5,521.5 296.5,522.5 296.5,523.5C 295.5,523.5 294.5,523.5 293.5,523.5C 293.649,524.552 293.483,525.552 293,526.5C 290.5,527.667 288.667,529.5 287.5,532C 286.552,532.483 285.552,532.649 284.5,532.5C 284.675,535.329 283.342,536.996 280.5,537.5C 278.078,540.76 275.244,543.426 272,545.5C 271.338,547.813 270.838,550.146 270.5,552.5C 267.167,552.5 265.5,554.167 265.5,557.5C 262.175,557.494 259.841,558.994 258.5,562C 257.207,562.49 255.873,562.657 254.5,562.5C 254.662,564.527 254.495,566.527 254,568.5C 251.5,569.667 249.667,571.5 248.5,574C 247.552,574.483 246.552,574.649 245.5,574.5C 245.649,575.552 245.483,576.552 245,577.5C 242.235,578.597 240.569,580.597 240,583.5C 238.989,584.337 237.822,584.67 236.5,584.5C 236.046,587.14 234.879,589.473 233,591.5C 230.307,591.953 228.473,593.453 227.5,596C 226.552,596.483 225.552,596.649 224.5,596.5C 224.649,597.552 224.483,598.552 224,599.5C 221.791,601.78 219.291,603.614 216.5,605C 216.047,607.693 214.547,609.527 212,610.5C 211.608,614.072 209.941,616.739 207,618.5C 206.289,621.879 204.122,623.379 200.5,623C 199.056,627.076 196.89,630.576 194,633.5C 192.933,634.191 191.766,634.691 190.5,635C 188.22,637.209 186.386,639.709 185,642.5C 181.09,643.24 179.256,645.573 179.5,649.5C 178.5,649.5 177.5,649.5 176.5,649.5C 176.675,652.329 175.342,653.996 172.5,654.5C 172.167,658.167 170.167,660.167 166.5,660.5C 162.676,664.493 159.009,668.66 155.5,673C 154.234,673.309 153.067,673.809 152,674.5C 151.338,676.813 150.838,679.146 150.5,681.5C 147.612,681.22 146.112,682.553 146,685.5C 142.5,687.667 139.667,690.5 137.5,694C 136.552,694.483 135.552,694.649 134.5,694.5C 134.649,695.552 134.483,696.552 134,697.5C 131.5,698.667 129.667,700.5 128.5,703C 126.19,703.497 123.857,703.663 121.5,703.5C 121.5,704.833 121.5,706.167 121.5,707.5C 114.462,708.773 107.795,707.606 101.5,704C 96.7711,698.686 91.9377,693.519 87,688.5C 86.5007,683.511 86.3341,678.511 86.5,673.5C 87.8333,673.5 89.1667,673.5 90.5,673.5C 90.2924,671.08 90.6258,668.747 91.5,666.5C 95.2054,662.38 99.3721,658.714 104,655.5C 104.483,654.552 104.649,653.552 104.5,652.5C 105.5,652.5 106.5,652.5 107.5,652.5C 107.34,650.801 107.506,649.134 108,647.5C 110.414,645.811 112.914,644.311 115.5,643C 116.191,641.933 116.691,640.766 117,639.5C 119.269,636.953 121.935,634.953 125,633.5C 127.725,630.737 129.725,627.403 131,623.5C 133.874,622.468 135.374,620.468 135.5,617.5C 136.5,617.5 137.5,617.5 138.5,617.5C 138.5,616.167 138.5,614.833 138.5,613.5C 139.552,613.649 140.552,613.483 141.5,613C 143.78,610.791 145.614,608.291 147,605.5C 150.065,604.047 152.731,602.047 155,599.5C 155.309,598.234 155.809,597.067 156.5,596C 158.73,594.115 161.23,592.615 164,591.5C 165.604,589.008 166.938,586.341 168,583.5C 171.5,581.333 174.333,578.5 176.5,575C 177.5,574.667 178.5,574.333 179.5,574C 180.667,571.5 182.5,569.667 185,568.5C 185.333,566.833 185.667,565.167 186,563.5C 189.191,561.507 192.191,559.174 195,556.5C 195.49,555.207 195.657,553.873 195.5,552.5C 198.923,550.914 201.589,548.414 203.5,545C 206.272,544.729 207.938,543.229 208.5,540.5C 210.261,538.32 212.427,536.654 215,535.5C 215.483,534.552 215.649,533.552 215.5,532.5C 216.552,532.649 217.552,532.483 218.5,532C 220.373,529.47 222.207,526.97 224,524.5C 225.333,523.833 226.667,523.167 228,522.5C 227.614,516.86 230.114,514.194 235.5,514.5C 235.626,511.532 237.126,509.532 240,508.5C 240.813,506.564 241.313,504.564 241.5,502.5C 242.5,502.5 243.5,502.5 244.5,502.5C 245.369,495.816 244.036,489.816 240.5,484.5C 242.167,482.5 243.833,480.5 245.5,478.5C 246.467,477.194 247.801,476.527 249.5,476.5C 249.5,474.833 249.5,473.167 249.5,471.5C 250.11,470.609 250.443,469.609 250.5,468.5C 251.708,469.234 253.041,469.567 254.5,469.5C 254.5,470.5 254.5,471.5 254.5,472.5C 261.175,472.666 267.842,472.5 274.5,472C 275.191,470.933 275.691,469.766 276,468.5C 278.209,466.22 280.709,464.386 283.5,463C 283.953,460.307 285.453,458.473 288,457.5C 288.207,452.294 290.873,449.294 296,448.5C 295.621,444.878 297.121,442.711 300.5,442C 302.78,439.791 304.614,437.291 306,434.5C 307.067,433.809 308.234,433.309 309.5,433C 311.78,430.791 313.614,428.291 315,425.5C 318.711,424.622 320.877,422.289 321.5,418.5C 322.807,417.184 324.307,416.184 326,415.5C 326.483,414.552 326.649,413.552 326.5,412.5C 327.552,412.649 328.552,412.483 329.5,412C 331.373,409.47 333.207,406.97 335,404.5C 338.788,402.045 341.955,398.878 344.5,395C 345.766,394.691 346.933,394.191 348,393.5C 347.503,389.106 349.336,386.772 353.5,386.5C 353.5,385.167 353.5,383.833 353.5,382.5C 354.552,382.649 355.552,382.483 356.5,382C 358.17,379.405 360.004,376.905 362,374.5C 363.067,373.809 364.234,373.309 365.5,373C 368.045,369.122 371.212,365.955 375,363.5C 375.611,361.25 376.944,359.583 379,358.5C 380.128,356.655 380.628,354.655 380.5,352.5C 383.329,352.675 384.996,351.342 385.5,348.5C 388.857,346.758 392.024,344.758 395,342.5C 395.196,340.714 396.029,339.381 397.5,338.5C 398.833,333.167 398.833,327.833 397.5,322.5C 396.263,319.992 394.43,317.992 392,316.5C 391.64,314.392 390.973,312.392 390,310.5C 386.296,308.561 382.963,306.228 380,303.5C 378.892,299.914 378.392,296.247 378.5,292.5C 377.167,292.5 375.833,292.5 374.5,292.5C 374.5,287.833 374.5,283.167 374.5,278.5C 375.167,278.5 375.833,278.5 376.5,278.5C 378.682,279.3 380.349,280.8 381.5,283C 385.821,283.499 390.154,283.666 394.5,283.5C 396.048,283.179 396.715,282.179 396.5,280.5C 397.5,280.5 398.5,280.5 399.5,280.5C 399.428,286.545 399.928,292.545 401,298.5C 403.259,301.788 406.092,304.455 409.5,306.5C 414.833,307.833 420.167,307.833 425.5,306.5C 428.743,304.703 431.576,302.37 434,299.5C 434.112,296.553 435.612,295.22 438.5,295.5C 438.401,291.273 440.235,288.273 444,286.5C 444.483,285.552 444.649,284.552 444.5,283.5C 446.199,283.66 447.866,283.494 449.5,283C 451.373,280.47 453.207,277.97 455,275.5C 458.191,273.507 461.191,271.174 464,268.5C 464.494,266.866 464.66,265.199 464.5,263.5C 465.552,263.649 466.552,263.483 467.5,263C 468.951,259.889 470.785,257.056 473,254.5C 474.011,253.663 475.178,253.33 476.5,253.5C 476.351,252.448 476.517,251.448 477,250.5C 479.5,249.333 481.333,247.5 482.5,245C 483.5,244.667 484.5,244.333 485.5,244C 490.871,236.636 496.871,229.969 503.5,224C 507.555,223.768 511.555,223.268 515.5,222.5C 519.445,223.268 523.445,223.768 527.5,224C 529.56,226.675 531.56,229.342 533.5,232C 534.448,232.483 535.448,232.649 536.5,232.5C 536.5,233.833 536.5,235.167 536.5,236.5C 537.833,236.5 539.167,236.5 540.5,236.5C 541.08,240.142 541.58,243.809 542,247.5C 545.333,248.5 545.333,249.5 542,250.5C 541.612,254.219 540.945,257.886 540,261.5C 538.266,262.249 536.433,262.749 534.5,263C 533.751,264.734 533.251,266.567 533,268.5C 530.5,269.667 528.667,271.5 527.5,274C 526.552,274.483 525.552,274.649 524.5,274.5C 524.649,275.552 524.483,276.552 524,277.5C 521.5,278.667 519.667,280.5 518.5,283C 517.552,283.483 516.552,283.649 515.5,283.5C 514.893,286.076 513.726,288.409 512,290.5C 509.597,291.781 507.763,293.614 506.5,296C 505.552,296.483 504.552,296.649 503.5,296.5C 503.649,297.552 503.483,298.552 503,299.5C 500.791,301.78 498.291,303.614 495.5,305C 494.047,308.065 492.047,310.731 489.5,313C 488.207,313.49 486.873,313.657 485.5,313.5C 485.664,316.187 485.497,318.854 485,321.5C 483.933,322.191 482.766,322.691 481.5,323C 479.333,325.833 476.833,328.333 474,330.5C 473.833,333.333 472.333,334.833 469.5,335C 467.22,337.209 465.386,339.709 464,342.5C 460.935,343.953 458.269,345.953 456,348.5C 455.888,351.447 454.388,352.78 451.5,352.5C 451.8,356.993 449.8,359.659 445.5,360.5C 441.343,364.826 437.343,369.326 433.5,374C 431.167,375.667 428.833,377.333 426.5,379C 425.736,381.069 425.236,383.236 425,385.5C 421.5,387.667 418.667,390.5 416.5,394C 415.552,394.483 414.552,394.649 413.5,394.5C 413.649,395.552 413.483,396.552 413,397.5C 410.5,398.667 408.667,400.5 407.5,403C 406.552,403.483 405.552,403.649 404.5,403.5C 404.649,404.552 404.483,405.552 404,406.5C 401.5,407.667 399.667,409.5 398.5,412C 397.552,412.483 396.552,412.649 395.5,412.5C 395.833,415.5 394.5,416.833 391.5,416.5C 391.326,418.861 390.993,421.194 390.5,423.5C 389.5,423.5 388.5,423.5 387.5,423.5C 387.334,429.509 387.501,435.509 388,441.5C 390.381,442.435 392.881,442.768 395.5,442.5C 395.5,443.833 395.5,445.167 395.5,446.5C 400.167,446.5 404.833,446.5 409.5,446.5 Z"/></g>
<g><path style="opacity:1" fill="#226d1b" d="M 353.5,253.5 C 354.5,253.5 355.5,253.5 356.5,253.5C 356.527,255.199 357.194,256.533 358.5,257.5C 357.5,257.5 356.5,257.5 355.5,257.5C 355.473,255.801 354.806,254.467 353.5,253.5 Z"/></g>
<g><path style="opacity:1" fill="#1f6519" d="M 366.5,262.5 C 368.167,262.5 369.833,262.5 371.5,262.5C 371.527,264.199 372.194,265.533 373.5,266.5C 372.5,266.5 371.5,266.5 370.5,266.5C 370.5,265.5 370.5,264.5 370.5,263.5C 368.901,263.768 367.568,263.434 366.5,262.5 Z"/></g>
<g><path style="opacity:1" fill="#2c6f1d" d="M 373.5,266.5 C 373.977,270.62 374.977,274.62 376.5,278.5C 375.833,278.5 375.167,278.5 374.5,278.5C 373.517,274.702 373.183,270.702 373.5,266.5 Z"/></g>
<g><path style="opacity:1" fill="#367320" d="M 399.5,265.5 C 399.5,270.5 399.5,275.5 399.5,280.5C 398.5,280.5 397.5,280.5 396.5,280.5C 396.715,282.179 396.048,283.179 394.5,283.5C 395.234,282.292 395.567,280.959 395.5,279.5C 396.5,279.5 397.5,279.5 398.5,279.5C 398.181,274.637 398.514,269.97 399.5,265.5 Z"/></g>
<g><path style="opacity:1" fill="#206519" d="M 192.5,287.5 C 190.952,287.179 190.285,286.179 190.5,284.5C 188.446,284.365 186.779,285.032 185.5,286.5C 185.5,285.5 185.5,284.5 185.5,283.5C 187.5,283.5 189.5,283.5 191.5,283.5C 191.433,284.959 191.766,286.292 192.5,287.5 Z"/></g>
<g><path style="opacity:1" fill="#47e237" d="M 192.5,287.5 C 194.435,288.15 196.435,288.483 198.5,288.5C 198.5,289.5 198.5,290.5 198.5,291.5C 201.206,291.575 203.873,291.908 206.5,292.5C 206.5,293.5 206.5,294.5 206.5,295.5C 207.833,295.5 209.167,295.5 210.5,295.5C 210.651,299.314 212.651,300.981 216.5,300.5C 216.5,301.833 216.5,303.167 216.5,304.5C 219.167,304.5 221.833,304.5 224.5,304.5C 224.5,305.5 224.5,306.5 224.5,307.5C 225.209,308.404 226.209,308.737 227.5,308.5C 227.5,310.167 227.5,311.833 227.5,313.5C 229.167,313.5 230.833,313.5 232.5,313.5C 233.833,313.5 235.167,313.5 236.5,313.5C 236.343,314.873 236.51,316.207 237,317.5C 240.823,320.046 242.49,323.713 242,328.5C 244.436,330.467 246.936,332.134 249.5,333.5C 249.019,337.349 250.686,339.349 254.5,339.5C 254.336,342.187 254.503,344.854 255,347.5C 256.011,348.337 257.178,348.67 258.5,348.5C 258.833,352.5 259.167,356.5 259.5,360.5C 260.209,361.404 261.209,361.737 262.5,361.5C 262.194,364.385 262.527,367.052 263.5,369.5C 264.786,374.924 265.452,380.59 265.5,386.5C 265.452,392.41 264.786,398.076 263.5,403.5C 262.965,406.634 261.965,409.634 260.5,412.5C 259.635,418.004 258.968,423.671 258.5,429.5C 257.167,429.5 255.833,429.5 254.5,429.5C 254.5,432.833 254.5,436.167 254.5,439.5C 253.596,440.209 253.263,441.209 253.5,442.5C 252.5,442.5 251.5,442.5 250.5,442.5C 250.5,443.5 250.5,444.5 250.5,445.5C 249.167,453.167 249.167,460.833 250.5,468.5C 250.443,469.609 250.11,470.609 249.5,471.5C 248.566,472.568 248.232,473.901 248.5,475.5C 247.5,475.5 246.5,475.5 245.5,475.5C 245.5,476.5 245.5,477.5 245.5,478.5C 243.833,480.5 242.167,482.5 240.5,484.5C 239.167,484.5 237.833,484.5 236.5,484.5C 236.5,479.167 236.5,473.833 236.5,468.5C 234.435,468.483 232.435,468.15 230.5,467.5C 230.5,466.167 230.5,464.833 230.5,463.5C 228.833,463.5 227.167,463.5 225.5,463.5C 222.167,463.5 218.833,463.5 215.5,463.5C 215.5,462.167 215.5,460.833 215.5,459.5C 212.545,458.841 209.545,458.508 206.5,458.5C 206.768,456.901 206.434,455.568 205.5,454.5C 204.194,453.533 203.527,452.199 203.5,450.5C 202.5,450.5 201.5,450.5 200.5,450.5C 198.738,450.643 197.071,450.309 195.5,449.5C 194.526,447.257 194.192,444.924 194.5,442.5C 193.167,442.5 191.833,442.5 190.5,442.5C 190.5,440.833 190.5,439.167 190.5,437.5C 188.833,437.5 187.167,437.5 185.5,437.5C 185.5,436.167 185.5,434.833 185.5,433.5C 184.167,433.5 182.833,433.5 181.5,433.5C 181.037,430.518 180.704,427.518 180.5,424.5C 179.167,424.5 177.833,424.5 176.5,424.5C 176.5,421.833 176.5,419.167 176.5,416.5C 175.167,416.5 173.833,416.5 172.5,416.5C 172.296,413.482 171.963,410.482 171.5,407.5C 170.167,407.5 168.833,407.5 167.5,407.5C 167.5,406.5 167.5,405.5 167.5,404.5C 166.158,402.639 165.158,400.639 164.5,398.5C 164.5,394.5 164.5,390.5 164.5,386.5C 163.167,386.5 161.833,386.5 160.5,386.5C 159.235,368.841 159.235,351.174 160.5,333.5C 161.833,333.5 163.167,333.5 164.5,333.5C 164.5,329.5 164.5,325.5 164.5,321.5C 165.467,320.194 166.801,319.527 168.5,319.5C 168.5,317.5 168.5,315.5 168.5,313.5C 170.179,313.715 171.179,313.048 171.5,311.5C 171.575,308.794 171.908,306.127 172.5,303.5C 173.822,303.67 174.989,303.337 176,302.5C 176.497,300.19 176.663,297.857 176.5,295.5C 177.833,295.5 179.167,295.5 180.5,295.5C 180.674,293.139 181.007,290.806 181.5,288.5C 183.38,288.771 184.713,288.104 185.5,286.5C 186.779,285.032 188.446,284.365 190.5,284.5C 190.285,286.179 190.952,287.179 192.5,287.5 Z"/></g>
<g><path style="opacity:1" fill="#216719" d="M 224.5,307.5 C 225.833,307.5 227.167,307.5 228.5,307.5C 228.5,309.167 228.5,310.833 228.5,312.5C 230.099,312.232 231.432,312.566 232.5,313.5C 230.833,313.5 229.167,313.5 227.5,313.5C 227.5,311.833 227.5,310.167 227.5,308.5C 226.209,308.737 225.209,308.404 224.5,307.5 Z"/></g>
<g><path style="opacity:1" fill="#24731c" d="M 171.5,311.5 C 171.179,313.048 170.179,313.715 168.5,313.5C 168.5,315.5 168.5,317.5 168.5,319.5C 166.801,319.527 165.467,320.194 164.5,321.5C 164.5,320.5 164.5,319.5 164.5,318.5C 165.5,318.5 166.5,318.5 167.5,318.5C 167.5,316.5 167.5,314.5 167.5,312.5C 168.959,312.567 170.292,312.234 171.5,311.5 Z"/></g>
<g><path style="opacity:1" fill="#226d1b" d="M 259.5,360.5 C 260.833,360.5 262.167,360.5 263.5,360.5C 263.5,363.5 263.5,366.5 263.5,369.5C 262.527,367.052 262.194,364.385 262.5,361.5C 261.209,361.737 260.209,361.404 259.5,360.5 Z"/></g>
<g><path style="opacity:1" fill="#2e9324" d="M 263.5,369.5 C 264.5,369.5 265.5,369.5 266.5,369.5C 266.5,380.833 266.5,392.167 266.5,403.5C 265.5,403.5 264.5,403.5 263.5,403.5C 264.786,398.076 265.452,392.41 265.5,386.5C 265.452,380.59 264.786,374.924 263.5,369.5 Z"/></g>
<g><path style="opacity:1" fill="#298320" d="M 164.5,398.5 C 165.158,400.639 166.158,402.639 167.5,404.5C 166.5,404.5 165.5,404.5 164.5,404.5C 164.5,402.5 164.5,400.5 164.5,398.5 Z"/></g>
<g><path style="opacity:1" fill="#226e1b" d="M 263.5,403.5 C 263.5,406.5 263.5,409.5 263.5,412.5C 262.5,412.5 261.5,412.5 260.5,412.5C 261.965,409.634 262.965,406.634 263.5,403.5 Z"/></g>
<g><path style="opacity:1" fill="#47e337" d="M 551.5,411.5 C 556.305,412.487 561.305,412.821 566.5,412.5C 566.5,413.833 566.5,415.167 566.5,416.5C 568.167,416.5 569.833,416.5 571.5,416.5C 571.5,417.5 571.5,418.5 571.5,419.5C 573.167,419.5 574.833,419.5 576.5,419.5C 579.206,419.575 581.873,419.908 584.5,420.5C 584.5,421.833 584.5,423.167 584.5,424.5C 586.948,425.473 589.615,425.806 592.5,425.5C 592.263,426.791 592.596,427.791 593.5,428.5C 596.482,428.963 599.482,429.296 602.5,429.5C 602.5,430.833 602.5,432.167 602.5,433.5C 603.5,433.5 604.5,433.5 605.5,433.5C 605.5,434.833 605.5,436.167 605.5,437.5C 608.482,437.963 611.482,438.296 614.5,438.5C 614.5,439.833 614.5,441.167 614.5,442.5C 615.833,442.5 617.167,442.5 618.5,442.5C 618.498,446.546 620.164,449.546 623.5,451.5C 623.5,452.833 623.5,454.167 623.5,455.5C 625.167,455.5 626.833,455.5 628.5,455.5C 628.263,456.791 628.596,457.791 629.5,458.5C 631.435,459.15 633.435,459.483 635.5,459.5C 635.5,462.167 635.5,464.833 635.5,467.5C 638.518,467.704 641.518,468.037 644.5,468.5C 644.5,470.5 644.5,472.5 644.5,474.5C 644.821,476.048 645.821,476.715 647.5,476.5C 647.232,478.099 647.566,479.432 648.5,480.5C 650.263,484.416 648.929,486.083 644.5,485.5C 644.5,488.167 644.5,490.833 644.5,493.5C 641.833,493.5 639.167,493.5 636.5,493.5C 636.727,495.933 635.727,497.599 633.5,498.5C 631.824,499.183 631.157,500.517 631.5,502.5C 629.901,502.232 628.568,502.566 627.5,503.5C 627.5,504.5 627.5,505.5 627.5,506.5C 626.5,506.5 625.5,506.5 624.5,506.5C 624.5,507.5 624.5,508.5 624.5,509.5C 621.43,509.368 618.43,509.701 615.5,510.5C 614.596,511.209 614.263,512.209 614.5,513.5C 613.209,513.263 612.209,513.596 611.5,514.5C 610.109,516.571 608.276,518.238 606,519.5C 605.51,520.793 605.343,522.127 605.5,523.5C 602.15,523.335 598.817,523.502 595.5,524C 594.027,524.71 593.36,525.876 593.5,527.5C 590.482,527.704 587.482,528.037 584.5,528.5C 584.5,529.833 584.5,531.167 584.5,532.5C 578.5,532.5 572.5,532.5 566.5,532.5C 564.167,532.5 561.833,532.5 559.5,532.5C 559.5,533.5 559.5,534.5 559.5,535.5C 553.642,535.178 547.975,535.511 542.5,536.5C 536.5,539.167 530.5,539.167 524.5,536.5C 520.03,535.514 515.363,535.181 510.5,535.5C 510.5,534.5 510.5,533.5 510.5,532.5C 509.5,532.5 508.5,532.5 507.5,532.5C 506.833,532.5 506.167,532.5 505.5,532.5C 503.361,531.842 501.361,530.842 499.5,529.5C 497.052,528.527 494.385,528.194 491.5,528.5C 491.737,527.209 491.404,526.209 490.5,525.5C 489.713,523.896 488.38,523.229 486.5,523.5C 485.432,522.566 484.099,522.232 482.5,522.5C 482.5,521.5 482.5,520.5 482.5,519.5C 481.5,519.5 480.5,519.5 479.5,519.5C 476.031,520.113 474.031,518.779 473.5,515.5C 470.532,515.374 468.532,513.874 467.5,511C 464.607,509.851 461.607,509.351 458.5,509.5C 458.5,508.5 458.5,507.5 458.5,506.5C 457.5,506.5 456.5,506.5 455.5,506.5C 455.5,503.167 453.833,501.5 450.5,501.5C 450.5,500.5 450.5,499.5 450.5,498.5C 448.139,498.326 445.806,497.993 443.5,497.5C 443.5,494.833 443.5,492.167 443.5,489.5C 442.5,489.5 441.5,489.5 440.5,489.5C 436.651,489.498 433.985,487.665 432.5,484C 431.552,483.517 430.552,483.351 429.5,483.5C 429.5,482.5 429.5,481.5 429.5,480.5C 426.58,479.558 423.914,478.224 421.5,476.5C 421.5,475.167 421.5,473.833 421.5,472.5C 416.025,471.511 410.358,471.178 404.5,471.5C 404.5,469.833 404.5,468.167 404.5,466.5C 403.5,466.5 402.5,466.5 401.5,466.5C 401.5,462.5 401.5,458.5 401.5,454.5C 404.059,454.802 406.393,454.468 408.5,453.5C 408.629,451.784 408.962,450.117 409.5,448.5C 414.87,446.621 420.537,445.955 426.5,446.5C 426.5,445.5 426.5,444.5 426.5,443.5C 428.099,443.768 429.432,443.434 430.5,442.5C 430.5,441.167 430.5,439.833 430.5,438.5C 432.564,438.313 434.564,437.813 436.5,437C 439.616,434.141 442.616,431.308 445.5,428.5C 447.167,428.5 448.833,428.5 450.5,428.5C 450.5,427.5 450.5,426.5 450.5,425.5C 452.099,425.768 453.432,425.434 454.5,424.5C 455.404,423.791 455.737,422.791 455.5,421.5C 457.099,421.768 458.432,421.434 459.5,420.5C 462.807,419.949 466.14,419.616 469.5,419.5C 470.404,418.791 470.737,417.791 470.5,416.5C 471.833,416.5 473.167,416.5 474.5,416.5C 474.5,415.167 474.5,413.833 474.5,412.5C 478.371,412.815 482.038,412.482 485.5,411.5C 485.5,410.5 485.5,409.5 485.5,408.5C 507.175,407.233 528.842,407.233 550.5,408.5C 550.263,409.791 550.596,410.791 551.5,411.5 Z"/></g>
<g><path style="opacity:1" fill="#216919" d="M 551.5,411.5 C 556.833,411.5 562.167,411.5 567.5,411.5C 567.5,412.833 567.5,414.167 567.5,415.5C 569.167,415.5 570.833,415.5 572.5,415.5C 572.5,416.5 572.5,417.5 572.5,418.5C 574.099,418.232 575.432,418.566 576.5,419.5C 574.833,419.5 573.167,419.5 571.5,419.5C 571.5,418.5 571.5,417.5 571.5,416.5C 569.833,416.5 568.167,416.5 566.5,416.5C 566.5,415.167 566.5,413.833 566.5,412.5C 561.305,412.821 556.305,412.487 551.5,411.5 Z"/></g>
<g><path style="opacity:1" fill="#226a1a" d="M 485.5,411.5 C 482.038,412.482 478.371,412.815 474.5,412.5C 474.5,413.833 474.5,415.167 474.5,416.5C 473.167,416.5 471.833,416.5 470.5,416.5C 470.737,417.791 470.404,418.791 469.5,419.5C 469.5,418.167 469.5,416.833 469.5,415.5C 470.833,415.5 472.167,415.5 473.5,415.5C 473.5,414.167 473.5,412.833 473.5,411.5C 477.5,411.5 481.5,411.5 485.5,411.5 Z"/></g>
<g><path style="opacity:1" fill="#23711b" d="M 459.5,420.5 C 458.432,421.434 457.099,421.768 455.5,421.5C 455.737,422.791 455.404,423.791 454.5,424.5C 454.5,423.167 454.5,421.833 454.5,420.5C 456.167,420.5 457.833,420.5 459.5,420.5 Z"/></g>
<g><path style="opacity:1" fill="#216919" d="M 584.5,424.5 C 587.5,424.5 590.5,424.5 593.5,424.5C 593.5,425.833 593.5,427.167 593.5,428.5C 592.596,427.791 592.263,426.791 592.5,425.5C 589.615,425.806 586.948,425.473 584.5,424.5 Z"/></g>
<g><path style="opacity:1" fill="#287f1f" d="M 454.5,424.5 C 453.432,425.434 452.099,425.768 450.5,425.5C 450.5,426.5 450.5,427.5 450.5,428.5C 448.833,428.5 447.167,428.5 445.5,428.5C 446.568,427.566 447.901,427.232 449.5,427.5C 449.5,426.5 449.5,425.5 449.5,424.5C 451.167,424.5 452.833,424.5 454.5,424.5 Z"/></g>
<g><path style="opacity:1" fill="#24741c" d="M 254.5,439.5 C 254.5,440.833 254.5,442.167 254.5,443.5C 252.801,443.527 251.467,444.194 250.5,445.5C 250.5,444.5 250.5,443.5 250.5,442.5C 251.5,442.5 252.5,442.5 253.5,442.5C 253.263,441.209 253.596,440.209 254.5,439.5 Z"/></g>
<g><path style="opacity:1" fill="#246d1b" d="M 430.5,442.5 C 429.432,443.434 428.099,443.768 426.5,443.5C 426.5,444.5 426.5,445.5 426.5,446.5C 420.537,445.955 414.87,446.621 409.5,448.5C 409.5,447.833 409.5,447.167 409.5,446.5C 414.64,445.512 419.974,445.179 425.5,445.5C 425.5,444.5 425.5,443.5 425.5,442.5C 427.167,442.5 428.833,442.5 430.5,442.5 Z"/></g>
<g><path style="opacity:1" fill="#226d1b" d="M 200.5,450.5 C 201.5,450.5 202.5,450.5 203.5,450.5C 203.527,452.199 204.194,453.533 205.5,454.5C 204.5,454.5 203.5,454.5 202.5,454.5C 202.473,452.801 201.806,451.467 200.5,450.5 Z"/></g>
<g><path style="opacity:1" fill="#3e8226" d="M 408.5,453.5 C 406.393,454.468 404.059,454.802 401.5,454.5C 401.5,458.5 401.5,462.5 401.5,466.5C 402.5,466.5 403.5,466.5 404.5,466.5C 404.5,468.167 404.5,469.833 404.5,471.5C 410.358,471.178 416.025,471.511 421.5,472.5C 415.5,472.5 409.5,472.5 403.5,472.5C 403.5,470.833 403.5,469.167 403.5,467.5C 402.5,467.5 401.5,467.5 400.5,467.5C 400.5,462.833 400.5,458.167 400.5,453.5C 403.167,453.5 405.833,453.5 408.5,453.5 Z"/></g>
<g><path style="opacity:1" fill="#23701b" d="M 623.5,451.5 C 624.404,452.209 624.737,453.209 624.5,454.5C 626.167,454.5 627.833,454.5 629.5,454.5C 629.5,455.833 629.5,457.167 629.5,458.5C 628.596,457.791 628.263,456.791 628.5,455.5C 626.833,455.5 625.167,455.5 623.5,455.5C 623.5,454.167 623.5,452.833 623.5,451.5 Z"/></g>
<g><path style="opacity:1" fill="#1f6418" d="M 225.5,463.5 C 227.167,463.5 228.833,463.5 230.5,463.5C 230.5,464.833 230.5,466.167 230.5,467.5C 229.596,466.791 229.263,465.791 229.5,464.5C 227.901,464.768 226.568,464.434 225.5,463.5 Z"/></g>
<g><path style="opacity:1" fill="#478929" d="M 249.5,471.5 C 249.5,473.167 249.5,474.833 249.5,476.5C 247.801,476.527 246.467,477.194 245.5,478.5C 245.5,477.5 245.5,476.5 245.5,475.5C 246.5,475.5 247.5,475.5 248.5,475.5C 248.232,473.901 248.566,472.568 249.5,471.5 Z"/></g>
<g><path style="opacity:1" fill="#1f6218" d="M 644.5,474.5 C 645.708,475.234 647.041,475.567 648.5,475.5C 648.5,477.167 648.5,478.833 648.5,480.5C 647.566,479.432 647.232,478.099 647.5,476.5C 645.821,476.715 644.821,476.048 644.5,474.5 Z"/></g>
<g><path style="opacity:1" fill="#226b1a" d="M 440.5,489.5 C 441.5,489.5 442.5,489.5 443.5,489.5C 443.5,492.167 443.5,494.833 443.5,497.5C 442.935,494.695 441.935,492.028 440.5,489.5 Z"/></g>
<g><path style="opacity:1" fill="#24741c" d="M 633.5,498.5 C 632.699,500.042 632.366,501.708 632.5,503.5C 630.833,503.5 629.167,503.5 627.5,503.5C 628.568,502.566 629.901,502.232 631.5,502.5C 631.157,500.517 631.824,499.183 633.5,498.5 Z"/></g>
<g><path style="opacity:1" fill="#1f6418" d="M 615.5,510.5 C 615.5,511.833 615.5,513.167 615.5,514.5C 614.167,514.5 612.833,514.5 611.5,514.5C 612.209,513.596 613.209,513.263 614.5,513.5C 614.263,512.209 614.596,511.209 615.5,510.5 Z"/></g>
<g><path style="opacity:1" fill="#236d1b" d="M 479.5,519.5 C 480.5,519.5 481.5,519.5 482.5,519.5C 482.5,520.5 482.5,521.5 482.5,522.5C 484.099,522.232 485.432,522.566 486.5,523.5C 484.833,523.5 483.167,523.5 481.5,523.5C 481.473,521.801 480.806,520.467 479.5,519.5 Z"/></g>
<g><path style="opacity:1" fill="#24751c" d="M 490.5,525.5 C 491.404,526.209 491.737,527.209 491.5,528.5C 494.385,528.194 497.052,528.527 499.5,529.5C 496.5,529.5 493.5,529.5 490.5,529.5C 490.5,528.167 490.5,526.833 490.5,525.5 Z"/></g>
<g><path style="opacity:1" fill="#28801f" d="M 499.5,529.5 C 501.361,530.842 503.361,531.842 505.5,532.5C 503.5,532.5 501.5,532.5 499.5,532.5C 499.5,531.5 499.5,530.5 499.5,529.5 Z"/></g>
<g><path style="opacity:1" fill="#24741c" d="M 507.5,532.5 C 508.5,532.5 509.5,532.5 510.5,532.5C 510.5,533.5 510.5,534.5 510.5,535.5C 515.363,535.181 520.03,535.514 524.5,536.5C 519.5,536.5 514.5,536.5 509.5,536.5C 509.473,534.801 508.806,533.467 507.5,532.5 Z"/></g>
<g><path style="opacity:1" fill="#226f1b" d="M 566.5,532.5 C 564.735,533.461 562.735,533.795 560.5,533.5C 560.5,534.5 560.5,535.5 560.5,536.5C 554.5,536.5 548.5,536.5 542.5,536.5C 547.975,535.511 553.642,535.178 559.5,535.5C 559.5,534.5 559.5,533.5 559.5,532.5C 561.833,532.5 564.167,532.5 566.5,532.5 Z"/></g>
<g><path style="opacity:1" fill="#24741c" d="M 524.5,536.5 C 530.5,539.167 536.5,539.167 542.5,536.5C 542.5,537.5 542.5,538.5 542.5,539.5C 536.5,539.5 530.5,539.5 524.5,539.5C 524.5,538.5 524.5,537.5 524.5,536.5 Z"/></g>
</svg>
