<?xml version="1.0" encoding="UTF-8"?>
<!DOCTYPE svg PUBLIC "-//W3C//DTD SVG 1.1//EN" "http://www.w3.org/Graphics/SVG/1.1/DTD/svg11.dtd">
<svg xmlns="http://www.w3.org/2000/svg" version="1.1" width="750px" height="750px" style="shape-rendering:geometricPrecision; text-rendering:geometricPrecision; image-rendering:optimizeQuality; fill-rule:evenodd; clip-rule:evenodd" xmlns:xlink="http://www.w3.org/1999/xlink">
<g><path style="opacity:1" fill="#000000" d="M 341.5,26.5 C 342.833,26.5 344.167,26.5 345.5,26.5C 345.5,27.5 345.5,28.5 345.5,29.5C 348.308,29.6933 350.975,30.36 353.5,31.5C 353.5,32.5 353.5,33.5 353.5,34.5C 355.861,34.6741 358.194,35.0074 360.5,35.5C 360.5,36.5 360.5,37.5 360.5,38.5C 364.512,37.8874 366.512,39.5541 366.5,43.5C 369.206,43.5751 371.873,43.9084 374.5,44.5C 374.5,45.5 374.5,46.5 374.5,47.5C 378.04,47.3765 380.04,49.0432 380.5,52.5C 383.5,52.1667 384.833,53.5 384.5,56.5C 385.5,56.5 386.5,56.5 387.5,56.5C 387.5,57.5 387.5,58.5 387.5,59.5C 390.025,60.64 392.692,61.3067 395.5,61.5C 395.5,62.5 395.5,63.5 395.5,64.5C 400.168,63.8394 402.168,65.8394 401.5,70.5C 402.5,70.5 403.5,70.5 404.5,70.5C 404.993,72.8056 405.326,75.139 405.5,77.5C 407.167,77.5 408.833,77.5 410.5,77.5C 410.5,79.1667 410.5,80.8333 410.5,82.5C 411.5,82.5 412.5,82.5 413.5,82.5C 413.963,85.4824 414.296,88.4824 414.5,91.5C 416.5,91.5 418.5,91.5 420.5,91.5C 421.799,95.3705 422.466,99.3705 422.5,103.5C 423.5,103.5 424.5,103.5 425.5,103.5C 425.5,104.833 425.5,106.167 425.5,107.5C 426.5,107.5 427.5,107.5 428.5,107.5C 428.874,113.302 429.874,118.968 431.5,124.5C 432.822,124.33 433.989,124.663 435,125.5C 435.499,129.486 435.666,133.486 435.5,137.5C 436.5,137.5 437.5,137.5 438.5,137.5C 438.235,144.916 438.902,152.25 440.5,159.5C 438.784,169.09 438.118,178.756 438.5,188.5C 437.5,188.5 436.5,188.5 435.5,188.5C 435.276,192.179 434.942,195.846 434.5,199.5C 433.5,199.5 432.5,199.5 431.5,199.5C 430.833,204.508 430,209.508 429,214.5C 428.586,214.957 428.086,215.291 427.5,215.5C 426.558,221.141 425.891,226.807 425.5,232.5C 424.5,232.5 423.5,232.5 422.5,232.5C 422.808,234.924 422.474,237.257 421.5,239.5C 420.476,240.853 419.143,241.52 417.5,241.5C 417.5,242.833 417.5,244.167 417.5,245.5C 416.5,245.5 415.5,245.5 414.5,245.5C 413.728,249.452 413.395,253.452 413.5,257.5C 412.5,257.5 411.5,257.5 410.5,257.5C 410.072,260.564 409.406,263.564 408.5,266.5C 407.5,266.5 406.5,266.5 405.5,266.5C 405.5,273.5 405.5,280.5 405.5,287.5C 406.5,287.5 407.5,287.5 408.5,287.5C 407.887,291.512 409.554,293.512 413.5,293.5C 413.833,295.5 414.167,297.5 414.5,299.5C 416.2,299.626 417.7,300.293 419,301.5C 421.176,300.484 422.343,298.818 422.5,296.5C 423.5,296.5 424.5,296.5 425.5,296.5C 425.167,293.5 426.5,292.167 429.5,292.5C 429.833,289.5 431.5,287.833 434.5,287.5C 434.674,285.139 435.007,282.806 435.5,280.5C 438.5,280.167 440.167,278.5 440.5,275.5C 443.5,275.833 444.833,274.5 444.5,271.5C 446.5,270.833 448.5,270.167 450.5,269.5C 451.167,267.5 451.833,265.5 452.5,263.5C 455.5,263.833 456.833,262.5 456.5,259.5C 459.957,259.04 461.623,257.04 461.5,253.5C 462.5,253.5 463.5,253.5 464.5,253.5C 464.197,250.412 465.53,248.746 468.5,248.5C 468.746,245.53 470.412,244.197 473.5,244.5C 473.197,241.412 474.53,239.746 477.5,239.5C 477.5,238.5 477.5,237.5 477.5,236.5C 478.5,236.5 479.5,236.5 480.5,236.5C 480.746,233.53 482.412,232.197 485.5,232.5C 485.197,229.412 486.53,227.746 489.5,227.5C 489.746,224.53 491.412,223.197 494.5,223.5C 494.488,219.554 496.488,217.887 500.5,218.5C 500.5,217.5 500.5,216.5 500.5,215.5C 510.503,214.206 520.503,214.206 530.5,215.5C 530.5,216.5 530.5,217.5 530.5,218.5C 532.929,218.884 535.263,219.551 537.5,220.5C 537.5,221.5 537.5,222.5 537.5,223.5C 540.588,223.197 542.254,224.53 542.5,227.5C 545.779,228.031 547.113,230.031 546.5,233.5C 547.5,233.5 548.5,233.5 549.5,233.5C 550.159,238.814 550.826,244.147 551.5,249.5C 550.994,254.217 550.328,258.883 549.5,263.5C 548.5,263.5 547.5,263.5 546.5,263.5C 546.662,265.527 546.495,267.527 546,269.5C 545.29,270.973 544.124,271.64 542.5,271.5C 542.254,274.47 540.588,275.803 537.5,275.5C 537.5,276.5 537.5,277.5 537.5,278.5C 534.53,278.746 533.197,280.412 533.5,283.5C 530.412,283.197 528.746,284.53 528.5,287.5C 525.53,287.746 524.197,289.412 524.5,292.5C 520.352,292.834 518.685,295.167 519.5,299.5C 516.53,299.746 515.197,301.412 515.5,304.5C 512.412,304.197 510.746,305.53 510.5,308.5C 508.5,309.167 506.5,309.833 504.5,310.5C 504.833,313.5 503.5,314.833 500.5,314.5C 500.167,317.5 498.5,319.167 495.5,319.5C 495.833,322.5 494.5,323.833 491.5,323.5C 492.197,327.827 490.53,330.494 486.5,331.5C 486.833,334.5 485.5,335.833 482.5,335.5C 482.167,338.5 480.5,340.167 477.5,340.5C 477.5,341.5 477.5,342.5 477.5,343.5C 474.5,343.167 473.167,344.5 473.5,347.5C 470.5,347.833 468.833,349.5 468.5,352.5C 465.5,352.167 464.167,353.5 464.5,356.5C 463.5,356.5 462.5,356.5 461.5,356.5C 460.36,359.025 459.693,361.692 459.5,364.5C 456.5,364.167 455.167,365.5 455.5,368.5C 452.5,368.833 450.833,370.5 450.5,373.5C 448.5,373.833 446.5,374.167 444.5,374.5C 444.803,377.588 443.47,379.254 440.5,379.5C 440.254,382.47 438.588,383.803 435.5,383.5C 435.167,385.5 434.833,387.5 434.5,389.5C 433.5,389.5 432.5,389.5 431.5,389.5C 432.113,393.512 430.446,395.512 426.5,395.5C 426.803,398.588 425.47,400.254 422.5,400.5C 422.254,403.47 420.588,404.803 417.5,404.5C 417.5,405.5 417.5,406.5 417.5,407.5C 414.53,407.746 413.197,409.412 413.5,412.5C 410.412,412.197 408.746,413.53 408.5,416.5C 407.5,416.5 406.5,416.5 405.5,416.5C 405.803,419.588 404.47,421.254 401.5,421.5C 400.551,423.737 399.884,426.071 399.5,428.5C 396.221,429.031 394.887,431.031 395.5,434.5C 396.833,434.5 398.167,434.5 399.5,434.5C 399.5,435.5 399.5,436.5 399.5,437.5C 403.763,438.409 408.097,439.076 412.5,439.5C 416.903,439.076 421.237,438.409 425.5,437.5C 425.674,435.139 426.007,432.806 426.5,430.5C 429.308,430.307 431.975,429.64 434.5,428.5C 434.167,425.5 435.5,424.167 438.5,424.5C 438.5,423.5 438.5,422.5 438.5,421.5C 441.564,421.072 444.564,420.406 447.5,419.5C 447.703,417.362 448.703,415.695 450.5,414.5C 455.12,413.468 459.786,412.802 464.5,412.5C 464.5,411.5 464.5,410.5 464.5,409.5C 465.833,409.5 467.167,409.5 468.5,409.5C 468.5,407.833 468.5,406.167 468.5,404.5C 477.162,404.072 485.829,403.738 494.5,403.5C 494.5,402.5 494.5,401.5 494.5,400.5C 502.732,400.678 510.898,400.011 519,398.5C 530.773,400.197 542.606,400.864 554.5,400.5C 554.5,401.5 554.5,402.5 554.5,403.5C 561.465,404.341 568.465,404.674 575.5,404.5C 575.5,406.167 575.5,407.833 575.5,409.5C 576.833,409.5 578.167,409.5 579.5,409.5C 579.5,410.5 579.5,411.5 579.5,412.5C 582.909,412.249 586.242,412.583 589.5,413.5C 590.466,415.396 590.799,417.396 590.5,419.5C 595.57,419.739 600.57,420.405 605.5,421.5C 605.5,422.5 605.5,423.5 605.5,424.5C 606.833,424.5 608.167,424.5 609.5,424.5C 609.5,428.5 611.5,430.5 615.5,430.5C 615.5,431.5 615.5,432.5 615.5,433.5C 618.206,433.575 620.873,433.908 623.5,434.5C 623.197,437.588 624.53,439.254 627.5,439.5C 628.801,443.108 630.468,446.441 632.5,449.5C 634.929,449.884 637.263,450.551 639.5,451.5C 640.449,453.737 641.116,456.071 641.5,458.5C 643.737,459.449 646.071,460.116 648.5,460.5C 649.449,462.737 650.116,465.071 650.5,467.5C 652.124,467.36 653.29,468.027 654,469.5C 654.497,471.81 654.663,474.143 654.5,476.5C 655.5,476.5 656.5,476.5 657.5,476.5C 657.679,478.606 658.679,480.272 660.5,481.5C 661.484,484.428 661.817,487.428 661.5,490.5C 656.146,489.946 653.479,492.279 653.5,497.5C 650.975,498.64 648.308,499.307 645.5,499.5C 645.833,502.5 644.5,503.833 641.5,503.5C 640.36,506.025 639.693,508.692 639.5,511.5C 638.167,511.5 636.833,511.5 635.5,511.5C 635.5,512.5 635.5,513.5 635.5,514.5C 631.881,515.244 628.215,515.577 624.5,515.5C 624.512,519.446 622.512,521.113 618.5,520.5C 618.5,521.5 618.5,522.5 618.5,523.5C 615.5,523.167 614.167,524.5 614.5,527.5C 611.975,528.64 609.308,529.307 606.5,529.5C 606.5,530.5 606.5,531.5 606.5,532.5C 602.481,532.646 598.481,532.979 594.5,533.5C 594.5,534.5 594.5,535.5 594.5,536.5C 593.167,536.5 591.833,536.5 590.5,536.5C 590.5,537.5 590.5,538.5 590.5,539.5C 582.845,540.276 575.178,540.942 567.5,541.5C 567.5,542.5 567.5,543.5 567.5,544.5C 558.485,544.501 549.485,544.834 540.5,545.5C 540.5,546.5 540.5,547.5 540.5,548.5C 538.5,548.5 536.5,548.5 534.5,548.5C 534.5,547.5 534.5,546.5 534.5,545.5C 524.168,545.125 513.835,544.792 503.5,544.5C 503.5,543.5 503.5,542.5 503.5,541.5C 500.664,540.224 497.664,539.558 494.5,539.5C 494.5,538.5 494.5,537.5 494.5,536.5C 491.5,536.5 488.5,536.5 485.5,536.5C 485.5,535.167 485.5,533.833 485.5,532.5C 484.5,532.5 483.5,532.5 482.5,532.5C 482.5,531.5 482.5,530.5 482.5,529.5C 478.37,529.466 474.37,528.799 470.5,527.5C 469.969,524.221 467.969,522.887 464.5,523.5C 464.5,522.5 464.5,521.5 464.5,520.5C 461.975,519.36 459.308,518.693 456.5,518.5C 456.5,517.5 456.5,516.5 456.5,515.5C 453.031,516.113 451.031,514.779 450.5,511.5C 448.263,510.551 445.929,509.884 443.5,509.5C 443.5,508.5 443.5,507.5 443.5,506.5C 442.5,506.5 441.5,506.5 440.5,506.5C 440.5,505.5 440.5,504.5 440.5,503.5C 438.833,503.5 437.167,503.5 435.5,503.5C 435.5,501.5 435.5,499.5 435.5,497.5C 434.167,497.5 432.833,497.5 431.5,497.5C 431.254,494.53 429.588,493.197 426.5,493.5C 426.5,492.5 426.5,491.5 426.5,490.5C 422.96,490.623 420.96,488.957 420.5,485.5C 418.194,485.007 415.861,484.674 413.5,484.5C 413.421,483.07 413.754,481.736 414.5,480.5C 408.202,479.504 401.868,479.17 395.5,479.5C 395.5,478.5 395.5,477.5 395.5,476.5C 392.833,476.5 390.167,476.5 387.5,476.5C 387.5,475.5 387.5,474.5 387.5,473.5C 385.139,473.326 382.806,472.993 380.5,472.5C 380.04,469.043 378.04,467.377 374.5,467.5C 374.5,466.5 374.5,465.5 374.5,464.5C 371.412,464.803 369.746,463.47 369.5,460.5C 368.5,460.5 367.5,460.5 366.5,460.5C 366.833,463.5 365.5,464.833 362.5,464.5C 362.167,467.5 360.5,469.167 357.5,469.5C 357.833,472.5 356.5,473.833 353.5,473.5C 353.5,474.5 353.5,475.5 353.5,476.5C 352.5,476.5 351.5,476.5 350.5,476.5C 350.167,479.5 348.5,481.167 345.5,481.5C 345.833,484.5 344.5,485.833 341.5,485.5C 340.36,488.025 339.693,490.692 339.5,493.5C 336.5,493.167 335.167,494.5 335.5,497.5C 332.5,497.833 330.833,499.5 330.5,502.5C 327.5,502.167 326.167,503.5 326.5,506.5C 325.5,506.5 324.5,506.5 323.5,506.5C 323.5,507.5 323.5,508.5 323.5,509.5C 320.5,509.833 318.833,511.5 318.5,514.5C 315.5,514.167 314.167,515.5 314.5,518.5C 311.5,518.833 309.833,520.5 309.5,523.5C 308.5,523.5 307.5,523.5 306.5,523.5C 307.113,526.969 305.779,528.969 302.5,529.5C 302.254,532.47 300.588,533.803 297.5,533.5C 297.167,535.5 296.833,537.5 296.5,539.5C 294.5,540.167 292.5,540.833 290.5,541.5C 290.254,544.47 288.588,545.803 285.5,545.5C 285.803,548.588 284.47,550.254 281.5,550.5C 280.551,552.737 279.884,555.071 279.5,557.5C 276.53,557.746 275.197,559.412 275.5,562.5C 272.412,562.197 270.746,563.53 270.5,566.5C 269.5,566.5 268.5,566.5 267.5,566.5C 267.803,569.588 266.47,571.254 263.5,571.5C 263.5,572.5 263.5,573.5 263.5,574.5C 260.412,574.197 258.746,575.53 258.5,578.5C 255.53,578.746 254.197,580.412 254.5,583.5C 251.412,583.197 249.746,584.53 249.5,587.5C 248.5,587.5 247.5,587.5 246.5,587.5C 247.401,591.241 246.068,593.241 242.5,593.5C 241.833,595.5 241.167,597.5 240.5,599.5C 237.53,599.746 236.197,601.412 236.5,604.5C 234.5,604.833 232.5,605.167 230.5,605.5C 230.167,608.5 228.5,610.167 225.5,610.5C 225.833,613.5 224.5,614.833 221.5,614.5C 220.36,617.025 219.693,619.692 219.5,622.5C 216.5,622.167 215.167,623.5 215.5,626.5C 214.5,626.5 213.5,626.5 212.5,626.5C 212.167,629.5 210.5,631.167 207.5,631.5C 207.833,634.5 206.5,635.833 203.5,635.5C 203.5,636.5 203.5,637.5 203.5,638.5C 200.5,638.833 198.833,640.5 198.5,643.5C 195.5,643.167 194.167,644.5 194.5,647.5C 191.5,647.833 189.833,649.5 189.5,652.5C 188.5,652.5 187.5,652.5 186.5,652.5C 186.326,654.861 185.993,657.194 185.5,659.5C 182.5,659.833 180.833,661.5 180.5,664.5C 177.5,664.167 176.167,665.5 176.5,668.5C 173.5,668.833 171.833,670.5 171.5,673.5C 169.5,673.833 167.5,674.167 165.5,674.5C 165.803,677.588 164.47,679.254 161.5,679.5C 160.551,681.737 159.884,684.071 159.5,686.5C 158.5,686.5 157.5,686.5 156.5,686.5C 156.803,689.588 155.47,691.254 152.5,691.5C 152.254,694.47 150.588,695.803 147.5,695.5C 147.803,698.588 146.47,700.254 143.5,700.5C 143.254,703.47 141.588,704.803 138.5,704.5C 138.5,705.5 138.5,706.5 138.5,707.5C 135.53,707.746 134.197,709.412 134.5,712.5C 130.519,713.021 126.519,713.354 122.5,713.5C 122.5,714.5 122.5,715.5 122.5,716.5C 116.833,716.5 111.167,716.5 105.5,716.5C 105.5,715.5 105.5,714.5 105.5,713.5C 102.14,713.384 98.8067,713.051 95.5,712.5C 95.5,711.5 95.5,710.5 95.5,709.5C 92.5,709.167 90.8333,707.5 90.5,704.5C 87.5,704.833 86.1667,703.5 86.5,700.5C 85.5,700.5 84.5,700.5 83.5,700.5C 82.6275,696.879 81.9608,693.212 81.5,689.5C 80.5,689.5 79.5,689.5 78.5,689.5C 78.5,684.167 78.5,678.833 78.5,673.5C 79.5,673.5 80.5,673.5 81.5,673.5C 81.5343,669.37 82.201,665.37 83.5,661.5C 86.4701,661.254 87.8034,659.588 87.5,656.5C 88.5,656.5 89.5,656.5 90.5,656.5C 90.7458,653.53 92.4124,652.197 95.5,652.5C 95.1966,649.412 96.5299,647.746 99.5,647.5C 100.449,645.263 101.116,642.929 101.5,640.5C 104.47,640.254 105.803,638.588 105.5,635.5C 107.5,635.167 109.5,634.833 111.5,634.5C 111.833,631.5 113.5,629.833 116.5,629.5C 116.833,627.5 117.167,625.5 117.5,623.5C 120.588,623.803 122.254,622.47 122.5,619.5C 125.47,619.254 126.803,617.588 126.5,614.5C 127.5,614.5 128.5,614.5 129.5,614.5C 129.377,610.96 131.043,608.96 134.5,608.5C 134.167,605.5 135.5,604.167 138.5,604.5C 138.5,603.5 138.5,602.5 138.5,601.5C 141.5,601.167 143.167,599.5 143.5,596.5C 144.5,596.5 145.5,596.5 146.5,596.5C 146.167,593.5 147.5,592.167 150.5,592.5C 150.833,589.5 152.5,587.833 155.5,587.5C 155.167,584.5 156.5,583.167 159.5,583.5C 160.64,580.975 161.307,578.308 161.5,575.5C 164.5,575.833 165.833,574.5 165.5,571.5C 167.5,570.833 169.5,570.167 171.5,569.5C 172.167,567.5 172.833,565.5 173.5,563.5C 176.5,563.833 177.833,562.5 177.5,559.5C 180.5,559.167 182.167,557.5 182.5,554.5C 185.5,554.833 186.833,553.5 186.5,550.5C 187.5,550.5 188.5,550.5 189.5,550.5C 188.887,546.488 190.554,544.488 194.5,544.5C 194.197,541.412 195.53,539.746 198.5,539.5C 199.167,537.5 199.833,535.5 200.5,533.5C 202.5,533.167 204.5,532.833 206.5,532.5C 206.197,529.412 207.53,527.746 210.5,527.5C 210.746,524.53 212.412,523.197 215.5,523.5C 215.197,520.412 216.53,518.746 219.5,518.5C 220.449,516.263 221.116,513.929 221.5,511.5C 224.47,511.254 225.803,509.588 225.5,506.5C 226.5,506.5 227.5,506.5 228.5,506.5C 228.746,503.53 230.412,502.197 233.5,502.5C 233.5,501.5 233.5,500.5 233.5,499.5C 236.997,499.005 237.997,497.172 236.5,494C 235.552,493.517 234.552,493.351 233.5,493.5C 233.5,492.5 233.5,491.5 233.5,490.5C 232.5,490.5 231.5,490.5 230.5,490.5C 229.264,485.933 228.598,481.266 228.5,476.5C 227.5,476.5 226.5,476.5 225.5,476.5C 225.67,475.178 225.337,474.011 224.5,473C 221.854,472.503 219.187,472.336 216.5,472.5C 216.5,471.5 216.5,470.5 216.5,469.5C 213.068,469.243 209.734,468.576 206.5,467.5C 206.5,466.5 206.5,465.5 206.5,464.5C 204.473,464.662 202.473,464.495 200.5,464C 199.027,463.29 198.36,462.124 198.5,460.5C 196.263,459.551 193.929,458.884 191.5,458.5C 190.551,456.263 189.884,453.929 189.5,451.5C 188.325,451.719 187.325,451.386 186.5,450.5C 185.626,448.253 185.292,445.92 185.5,443.5C 182.794,443.425 180.127,443.092 177.5,442.5C 177.803,439.412 176.47,437.746 173.5,437.5C 173.192,433.427 172.525,429.427 171.5,425.5C 169.5,425.167 167.5,424.833 165.5,424.5C 165.058,420.846 164.724,417.179 164.5,413.5C 163.07,413.579 161.736,413.246 160.5,412.5C 159.509,408.555 159.176,404.555 159.5,400.5C 158.5,400.5 157.5,400.5 156.5,400.5C 156.276,396.821 155.942,393.154 155.5,389.5C 154.5,389.5 153.5,389.5 152.5,389.5C 152.773,381.258 152.106,373.091 150.5,365C 150.876,362.095 151.543,359.262 152.5,356.5C 152.029,354.754 151.362,353.087 150.5,351.5C 152.162,348.021 152.828,344.354 152.5,340.5C 153.5,340.5 154.5,340.5 155.5,340.5C 155.502,333.48 155.835,326.48 156.5,319.5C 157.5,319.5 158.5,319.5 159.5,319.5C 160.485,314.889 161.152,310.222 161.5,305.5C 162.5,305.5 163.5,305.5 164.5,305.5C 164.963,302.518 165.296,299.518 165.5,296.5C 166.5,296.5 167.5,296.5 168.5,296.5C 168.5,295.5 168.5,294.5 168.5,293.5C 169.5,293.5 170.5,293.5 171.5,293.5C 172.406,290.564 173.072,287.564 173.5,284.5C 176.5,284.833 177.833,283.5 177.5,280.5C 178.5,280.5 179.5,280.5 180.5,280.5C 179.887,276.488 181.554,274.488 185.5,274.5C 185.5,273.5 185.5,272.5 185.5,271.5C 188.5,271.167 189.833,272.5 189.5,275.5C 193.904,277.772 198.571,279.439 203.5,280.5C 203.5,281.5 203.5,282.5 203.5,283.5C 206.455,284.159 209.455,284.492 212.5,284.5C 212.5,285.5 212.5,286.5 212.5,287.5C 215.47,287.746 216.803,289.412 216.5,292.5C 219.127,293.092 221.794,293.425 224.5,293.5C 224.833,295.5 225.167,297.5 225.5,299.5C 229.121,300.373 232.788,301.039 236.5,301.5C 236.5,302.833 236.5,304.167 236.5,305.5C 237.833,305.5 239.167,305.5 240.5,305.5C 240.833,308.5 242.5,310.167 245.5,310.5C 245.993,312.806 246.326,315.139 246.5,317.5C 247.5,317.5 248.5,317.5 249.5,317.5C 248.887,321.512 250.554,323.512 254.5,323.5C 255.092,326.127 255.425,328.794 255.5,331.5C 256.5,331.5 257.5,331.5 258.5,331.5C 259.776,334.336 260.442,337.336 260.5,340.5C 261.5,340.5 262.5,340.5 263.5,340.5C 263.5,341.5 263.5,342.5 263.5,343.5C 264.5,343.5 265.5,343.5 266.5,343.5C 266.616,346.86 266.949,350.193 267.5,353.5C 268.5,353.5 269.5,353.5 270.5,353.5C 270.93,360.196 271.597,366.862 272.5,373.5C 273.5,373.5 274.5,373.5 275.5,373.5C 275.5,378.833 275.5,384.167 275.5,389.5C 274.5,389.5 273.5,389.5 272.5,389.5C 272.494,399.555 271.827,409.555 270.5,419.5C 269.5,419.5 268.5,419.5 267.5,419.5C 267.64,425.536 267.307,431.536 266.5,437.5C 265.5,437.5 264.5,437.5 263.5,437.5C 263.5,439.5 263.5,441.5 263.5,443.5C 262.5,443.5 261.5,443.5 260.5,443.5C 259.993,448.526 259.326,453.526 258.5,458.5C 254.5,459.167 254.5,459.833 258.5,460.5C 258.746,463.47 260.412,464.803 263.5,464.5C 263.5,465.5 263.5,466.5 263.5,467.5C 264.5,467.5 265.5,467.5 266.5,467.5C 266.167,464.5 267.5,463.167 270.5,463.5C 270.833,460.5 272.5,458.833 275.5,458.5C 275.167,455.5 276.5,454.167 279.5,454.5C 280.64,451.975 281.307,449.308 281.5,446.5C 282.5,446.5 283.5,446.5 284.5,446.5C 284.167,443.5 285.5,442.167 288.5,442.5C 288.833,439.5 290.5,437.833 293.5,437.5C 293.5,436.5 293.5,435.5 293.5,434.5C 296.5,434.833 297.833,433.5 297.5,430.5C 300.5,430.167 302.167,428.5 302.5,425.5C 305.5,425.833 306.833,424.5 306.5,421.5C 309.5,421.167 311.167,419.5 311.5,416.5C 312.5,416.5 313.5,416.5 314.5,416.5C 314.674,414.139 315.007,411.806 315.5,409.5C 318.5,409.167 320.167,407.5 320.5,404.5C 322.5,404.167 324.5,403.833 326.5,403.5C 326.197,400.412 327.53,398.746 330.5,398.5C 330.746,395.53 332.412,394.197 335.5,394.5C 335.197,391.412 336.53,389.746 339.5,389.5C 340.449,387.263 341.116,384.929 341.5,382.5C 342.5,382.5 343.5,382.5 344.5,382.5C 344.197,379.412 345.53,377.746 348.5,377.5C 348.746,374.53 350.412,373.197 353.5,373.5C 353.5,372.5 353.5,371.5 353.5,370.5C 356.47,370.254 357.803,368.588 357.5,365.5C 360.588,365.803 362.254,364.47 362.5,361.5C 365.47,361.254 366.803,359.588 366.5,356.5C 367.5,356.5 368.5,356.5 369.5,356.5C 369.746,353.53 371.412,352.197 374.5,352.5C 374.575,349.794 374.908,347.127 375.5,344.5C 378.588,344.803 380.254,343.47 380.5,340.5C 383.47,340.254 384.803,338.588 384.5,335.5C 386.5,335.167 388.5,334.833 390.5,334.5C 390.48,332.857 391.147,331.524 392.5,330.5C 391.147,329.476 390.48,328.143 390.5,326.5C 389.5,326.5 388.5,326.5 387.5,326.5C 387.5,325.5 387.5,324.5 387.5,323.5C 386.5,323.5 385.5,323.5 384.5,323.5C 385.113,320.031 383.779,318.031 380.5,317.5C 380.254,314.53 378.588,313.197 375.5,313.5C 374.908,310.873 374.575,308.206 374.5,305.5C 373.5,305.5 372.5,305.5 371.5,305.5C 370.201,301.63 369.534,297.63 369.5,293.5C 368.5,293.5 367.5,293.5 366.5,293.5C 366.726,286.124 366.392,278.791 365.5,271.5C 362.436,271.072 359.436,270.406 356.5,269.5C 356.5,268.5 356.5,267.5 356.5,266.5C 355.5,266.5 354.5,266.5 353.5,266.5C 353.5,265.5 353.5,264.5 353.5,263.5C 350.794,263.425 348.127,263.092 345.5,262.5C 345.803,259.412 344.47,257.746 341.5,257.5C 341.5,256.5 341.5,255.5 341.5,254.5C 339.833,254.5 338.167,254.5 336.5,254.5C 336.5,253.167 336.5,251.833 336.5,250.5C 334.5,249.833 332.5,249.167 330.5,248.5C 330.5,247.167 330.5,245.833 330.5,244.5C 329.5,244.5 328.5,244.5 327.5,244.5C 327.803,241.412 326.47,239.746 323.5,239.5C 323.5,237.5 323.5,235.5 323.5,233.5C 321.833,233.5 320.167,233.5 318.5,233.5C 318.5,231.5 318.5,229.5 318.5,227.5C 317.5,227.5 316.5,227.5 315.5,227.5C 315.5,226.5 315.5,225.5 315.5,224.5C 314.167,224.5 312.833,224.5 311.5,224.5C 311.542,220.031 310.875,215.698 309.5,211.5C 308.167,211.5 306.833,211.5 305.5,211.5C 305.5,208.5 305.5,205.5 305.5,202.5C 304.5,202.5 303.5,202.5 302.5,202.5C 302.5,199.833 302.5,197.167 302.5,194.5C 300.833,194.5 299.167,194.5 297.5,194.5C 297.521,187.146 297.187,179.813 296.5,172.5C 295.5,172.5 294.5,172.5 293.5,172.5C 293.5,163.833 293.5,155.167 293.5,146.5C 292.5,146.5 291.5,146.5 290.5,146.5C 290.5,139.5 290.5,132.5 290.5,125.5C 291.5,125.5 292.5,125.5 293.5,125.5C 293.5,121.5 293.5,117.5 293.5,113.5C 294.5,113.5 295.5,113.5 296.5,113.5C 296.9,107.171 297.233,100.838 297.5,94.5C 298.5,94.5 299.5,94.5 300.5,94.5C 301.953,91.0137 302.619,87.347 302.5,83.5C 303.5,83.5 304.5,83.5 305.5,83.5C 306.207,80.2139 306.54,76.8806 306.5,73.5C 307.5,73.5 308.5,73.5 309.5,73.5C 310.64,70.9752 311.307,68.3085 311.5,65.5C 312.5,65.5 313.5,65.5 314.5,65.5C 314.963,62.5176 315.296,59.5176 315.5,56.5C 316.5,56.5 317.5,56.5 318.5,56.5C 318.746,53.5299 320.412,52.1966 323.5,52.5C 323.34,50.8008 323.506,49.1341 324,47.5C 325.726,45.4088 326.893,43.0755 327.5,40.5C 328.5,40.5 329.5,40.5 330.5,40.5C 330.833,37.5 332.5,35.8333 335.5,35.5C 335.351,34.448 335.517,33.448 336,32.5C 338.081,30.6254 339.914,28.6254 341.5,26.5 Z"/></g>
<g><path style="opacity:1" fill="#48e438" d="M 399.5,280.5 C 398.5,280.5 397.5,280.5 396.5,280.5C 396.5,281.5 396.5,282.5 396.5,283.5C 391.158,284.761 385.825,284.761 380.5,283.5C 380.04,280.043 378.04,278.377 374.5,278.5C 374.5,274.5 374.5,270.5 374.5,266.5C 373.5,266.5 372.5,266.5 371.5,266.5C 371.5,265.5 371.5,264.5 371.5,263.5C 368.482,263.296 365.482,262.963 362.5,262.5C 362.04,259.043 360.04,257.377 356.5,257.5C 356.5,256.5 356.5,255.5 356.5,254.5C 354.5,254.167 352.5,253.833 350.5,253.5C 350.04,250.043 348.04,248.377 344.5,248.5C 344.5,247.167 344.5,245.833 344.5,244.5C 342.833,244.5 341.167,244.5 339.5,244.5C 339.5,243.5 339.5,242.5 339.5,241.5C 338.5,241.5 337.5,241.5 336.5,241.5C 336.425,238.794 336.092,236.127 335.5,233.5C 331.554,233.512 329.887,231.512 330.5,227.5C 329.167,227.5 327.833,227.5 326.5,227.5C 326.5,225.167 326.5,222.833 326.5,220.5C 323.975,219.36 321.308,218.693 318.5,218.5C 318.5,215.5 318.5,212.5 318.5,209.5C 317.5,209.5 316.5,209.5 315.5,209.5C 315.5,207.5 315.5,205.5 315.5,203.5C 314.167,203.5 312.833,203.5 311.5,203.5C 311.261,198.43 310.595,193.43 309.5,188.5C 308.167,188.5 306.833,188.5 305.5,188.5C 305.5,183.167 305.5,177.833 305.5,172.5C 304.5,172.5 303.5,172.5 302.5,172.5C 300.933,161.573 300.266,150.573 300.5,139.5C 299.5,139.5 298.5,139.5 297.5,139.5C 297.5,137.5 297.5,135.5 297.5,133.5C 298.5,133.5 299.5,133.5 300.5,133.5C 300.84,126.462 301.507,119.462 302.5,112.5C 303.5,112.5 304.5,112.5 305.5,112.5C 305.334,108.486 305.501,104.486 306,100.5C 306.71,99.0267 307.876,98.3601 309.5,98.5C 310.326,93.5261 310.993,88.5261 311.5,83.5C 312.5,83.5 313.5,83.5 314.5,83.5C 313.887,80.0306 315.221,78.0306 318.5,77.5C 319.406,74.5641 320.072,71.5641 320.5,68.5C 321.5,68.5 322.5,68.5 323.5,68.5C 323.5,67.1667 323.5,65.8333 323.5,64.5C 324.5,64.5 325.5,64.5 326.5,64.5C 326.197,61.4124 327.53,59.7458 330.5,59.5C 330.458,55.9913 331.124,52.658 332.5,49.5C 335.779,48.9694 337.113,46.9694 336.5,43.5C 338.167,43.5 339.833,43.5 341.5,43.5C 341.5,41.8333 341.5,40.1667 341.5,38.5C 344.436,39.4058 347.436,40.0725 350.5,40.5C 350.5,41.5 350.5,42.5 350.5,43.5C 352.806,43.9926 355.139,44.3259 357.5,44.5C 357.5,45.5 357.5,46.5 357.5,47.5C 360.025,48.64 362.692,49.3067 365.5,49.5C 365.759,53.0681 367.759,54.4015 371.5,53.5C 371.5,54.5 371.5,55.5 371.5,56.5C 372.5,56.5 373.5,56.5 374.5,56.5C 374.197,59.5876 375.53,61.2542 378.5,61.5C 378.746,64.4701 380.412,65.8034 383.5,65.5C 383.5,66.5 383.5,67.5 383.5,68.5C 386.436,69.4058 389.436,70.0725 392.5,70.5C 392.5,71.5 392.5,72.5 392.5,73.5C 393.5,73.5 394.5,73.5 395.5,73.5C 394.887,76.9694 396.221,78.9694 399.5,79.5C 399.5,80.8333 399.5,82.1667 399.5,83.5C 401.167,83.5 402.833,83.5 404.5,83.5C 404.724,87.1788 405.058,90.8455 405.5,94.5C 406.5,94.5 407.5,94.5 408.5,94.5C 408.5,95.8333 408.5,97.1667 408.5,98.5C 410.167,98.5 411.833,98.5 413.5,98.5C 413.942,102.154 414.276,105.821 414.5,109.5C 415.5,109.5 416.5,109.5 417.5,109.5C 417.5,110.833 417.5,112.167 417.5,113.5C 419.167,113.5 420.833,113.5 422.5,113.5C 422.5,117.5 422.5,121.5 422.5,125.5C 423.5,125.5 424.5,125.5 425.5,125.5C 425.575,128.206 425.908,130.873 426.5,133.5C 427.5,133.5 428.5,133.5 429.5,133.5C 432.063,151.848 432.063,170.182 429.5,188.5C 428.5,188.5 427.5,188.5 426.5,188.5C 425.836,193.473 425.503,198.473 425.5,203.5C 424.5,203.5 423.5,203.5 422.5,203.5C 421.244,209.081 420.577,214.748 420.5,220.5C 419.5,220.5 418.5,220.5 417.5,220.5C 417.5,221.833 417.5,223.167 417.5,224.5C 416.5,224.5 415.5,224.5 414.5,224.5C 414.664,227.187 414.497,229.854 414,232.5C 412.989,233.337 411.822,233.67 410.5,233.5C 411.197,237.827 409.53,240.494 405.5,241.5C 405.533,245.869 405.2,250.202 404.5,254.5C 403.5,254.5 402.5,254.5 401.5,254.5C 399.829,263.056 399.162,271.722 399.5,280.5 Z"/></g>
<g><path style="opacity:1" fill="#7f5734" d="M 410.5,446.5 C 410.307,449.308 409.64,451.975 408.5,454.5C 406.167,454.5 403.833,454.5 401.5,454.5C 401.5,458.833 401.5,463.167 401.5,467.5C 402.5,467.5 403.5,467.5 404.5,467.5C 404.5,469.167 404.5,470.833 404.5,472.5C 403.5,472.5 402.5,472.5 401.5,472.5C 401.5,471.5 401.5,470.5 401.5,469.5C 397.788,469.039 394.121,468.373 390.5,467.5C 390.5,466.5 390.5,465.5 390.5,464.5C 388.5,464.167 386.5,463.833 384.5,463.5C 384.5,462.5 384.5,461.5 384.5,460.5C 380.96,460.623 378.96,458.957 378.5,455.5C 371.5,454.167 364.5,454.167 357.5,455.5C 357.803,458.588 356.47,460.254 353.5,460.5C 353.5,461.5 353.5,462.5 353.5,463.5C 350.412,463.197 348.746,464.53 348.5,467.5C 345.53,467.746 344.197,469.412 344.5,472.5C 341.412,472.197 339.746,473.53 339.5,476.5C 338.5,476.5 337.5,476.5 336.5,476.5C 336.803,479.588 335.47,481.254 332.5,481.5C 332.116,483.929 331.449,486.263 330.5,488.5C 327.53,488.746 326.197,490.412 326.5,493.5C 324.5,493.833 322.5,494.167 320.5,494.5C 320.167,497.5 318.5,499.167 315.5,499.5C 315.833,502.5 314.5,503.833 311.5,503.5C 310.833,505.5 310.167,507.5 309.5,509.5C 306.53,509.746 305.197,511.412 305.5,514.5C 301.554,514.488 299.887,516.488 300.5,520.5C 299.5,520.5 298.5,520.5 297.5,520.5C 297.833,523.5 296.5,524.833 293.5,524.5C 293.5,525.5 293.5,526.5 293.5,527.5C 290.5,527.833 288.833,529.5 288.5,532.5C 285.5,532.167 284.167,533.5 284.5,536.5C 283.5,536.5 282.5,536.5 281.5,536.5C 281.167,539.5 279.5,541.167 276.5,541.5C 276.833,544.5 275.5,545.833 272.5,545.5C 272.307,548.308 271.64,550.975 270.5,553.5C 267.5,553.167 266.167,554.5 266.5,557.5C 264.5,558.167 262.5,558.833 260.5,559.5C 260.254,562.47 258.588,563.803 255.5,563.5C 255.167,565.5 254.833,567.5 254.5,569.5C 251.5,569.833 249.833,571.5 249.5,574.5C 246.5,574.167 245.167,575.5 245.5,578.5C 242.043,578.96 240.377,580.96 240.5,584.5C 239.5,584.5 238.5,584.5 237.5,584.5C 237.803,587.588 236.47,589.254 233.5,589.5C 233.5,590.5 233.5,591.5 233.5,592.5C 230.412,592.197 228.746,593.53 228.5,596.5C 227.5,596.5 226.5,596.5 225.5,596.5C 225.803,599.588 224.47,601.254 221.5,601.5C 221.254,604.47 219.588,605.803 216.5,605.5C 216.803,608.588 215.47,610.254 212.5,610.5C 212.116,612.929 211.449,615.263 210.5,617.5C 207.53,617.746 206.197,619.412 206.5,622.5C 204.5,622.833 202.5,623.167 200.5,623.5C 199.833,625.5 199.167,627.5 198.5,629.5C 195.53,629.746 194.197,631.412 194.5,634.5C 191.412,634.197 189.746,635.53 189.5,638.5C 186.53,638.746 185.197,640.412 185.5,643.5C 181.554,643.488 179.887,645.488 180.5,649.5C 179.5,649.5 178.5,649.5 177.5,649.5C 177.833,652.5 176.5,653.833 173.5,653.5C 172.833,655.5 172.167,657.5 171.5,659.5C 169.5,660.167 167.5,660.833 165.5,661.5C 165.833,664.5 164.5,665.833 161.5,665.5C 161.167,668.5 159.5,670.167 156.5,670.5C 156.833,673.5 155.5,674.833 152.5,674.5C 152.307,677.308 151.64,679.975 150.5,682.5C 147.5,682.167 146.167,683.5 146.5,686.5C 145.5,686.5 144.5,686.5 143.5,686.5C 143.167,689.5 141.5,691.167 138.5,691.5C 138.5,692.5 138.5,693.5 138.5,694.5C 135.5,694.167 134.167,695.5 134.5,698.5C 131.5,698.833 129.833,700.5 129.5,703.5C 127.194,703.993 124.861,704.326 122.5,704.5C 122.5,705.5 122.5,706.5 122.5,707.5C 119.756,707.248 117.256,707.915 115,709.5C 112.065,707.808 108.898,707.142 105.5,707.5C 105.5,706.5 105.5,705.5 105.5,704.5C 102.031,705.113 100.031,703.779 99.5,700.5C 96.5299,700.254 95.1966,698.588 95.5,695.5C 91.5541,695.512 89.8874,693.512 90.5,689.5C 89.5,689.5 88.5,689.5 87.5,689.5C 86.3762,684.148 86.3762,678.814 87.5,673.5C 88.5,673.5 89.5,673.5 90.5,673.5C 90.6933,670.692 91.36,668.025 92.5,665.5C 95.5,665.833 96.8333,664.5 96.5,661.5C 99.5,661.167 101.167,659.5 101.5,656.5C 102.5,656.5 103.5,656.5 104.5,656.5C 104.167,653.5 105.5,652.167 108.5,652.5C 108.5,650.833 108.5,649.167 108.5,647.5C 109.5,647.5 110.5,647.5 111.5,647.5C 111.746,644.53 113.412,643.197 116.5,643.5C 116.197,640.412 117.53,638.746 120.5,638.5C 120.746,635.53 122.412,634.197 125.5,634.5C 125.197,631.412 126.53,629.746 129.5,629.5C 130.167,627.5 130.833,625.5 131.5,623.5C 135.068,623.241 136.401,621.241 135.5,617.5C 136.5,617.5 137.5,617.5 138.5,617.5C 138.5,616.5 138.5,615.5 138.5,614.5C 141.588,614.803 143.254,613.47 143.5,610.5C 146.47,610.254 147.803,608.588 147.5,605.5C 150.588,605.803 152.254,604.47 152.5,601.5C 155.47,601.254 156.803,599.588 156.5,596.5C 157.5,596.5 158.5,596.5 159.5,596.5C 159.746,593.53 161.412,592.197 164.5,592.5C 164.197,589.412 165.53,587.746 168.5,587.5C 168.5,586.167 168.5,584.833 168.5,583.5C 169.5,583.5 170.5,583.5 171.5,583.5C 171.833,580.5 173.5,578.833 176.5,578.5C 176.167,575.5 177.5,574.167 180.5,574.5C 180.833,571.5 182.5,569.833 185.5,569.5C 185.833,567.5 186.167,565.5 186.5,563.5C 189.588,563.803 191.254,562.47 191.5,559.5C 194.779,558.969 196.113,556.969 195.5,553.5C 196.5,553.5 197.5,553.5 198.5,553.5C 198.833,550.5 200.5,548.833 203.5,548.5C 203.5,547.5 203.5,546.5 203.5,545.5C 206.5,545.833 207.833,544.5 207.5,541.5C 210.5,541.167 212.167,539.5 212.5,536.5C 213.5,536.5 214.5,536.5 215.5,536.5C 215.167,533.5 216.5,532.167 219.5,532.5C 219.833,529.5 221.5,527.833 224.5,527.5C 224.167,524.5 225.5,523.167 228.5,523.5C 228.693,520.692 229.36,518.025 230.5,515.5C 232.5,515.167 234.5,514.833 236.5,514.5C 236.197,511.412 237.53,509.746 240.5,509.5C 241.167,507.5 241.833,505.5 242.5,503.5C 243.5,503.5 244.5,503.5 245.5,503.5C 245.5,498.5 245.5,493.5 245.5,488.5C 244.5,488.5 243.5,488.5 242.5,488.5C 242.473,486.801 241.806,485.467 240.5,484.5C 242.048,484.179 242.715,483.179 242.5,481.5C 245.47,481.254 246.803,479.588 246.5,476.5C 247.5,476.5 248.5,476.5 249.5,476.5C 248.99,473.612 249.656,471.279 251.5,469.5C 252.5,469.5 253.5,469.5 254.5,469.5C 254.33,470.822 254.663,471.989 255.5,473C 262.203,473.713 268.87,473.546 275.5,472.5C 275.197,469.412 276.53,467.746 279.5,467.5C 279.746,464.53 281.412,463.197 284.5,463.5C 284.197,460.412 285.53,458.746 288.5,458.5C 288.884,456.071 289.551,453.737 290.5,451.5C 292.5,450.833 294.5,450.167 296.5,449.5C 296.833,447.5 297.167,445.5 297.5,443.5C 300.588,443.803 302.254,442.47 302.5,439.5C 305.47,439.254 306.803,437.588 306.5,434.5C 309.588,434.803 311.254,433.47 311.5,430.5C 314.47,430.254 315.803,428.588 315.5,425.5C 319.446,425.512 321.113,423.512 320.5,419.5C 321.5,419.5 322.5,419.5 323.5,419.5C 323.5,418.5 323.5,417.5 323.5,416.5C 324.5,416.5 325.5,416.5 326.5,416.5C 326.167,413.5 327.5,412.167 330.5,412.5C 330.833,409.5 332.5,407.833 335.5,407.5C 335.167,404.5 336.5,403.167 339.5,403.5C 339.833,400.5 341.5,398.833 344.5,398.5C 344.167,395.5 345.5,394.167 348.5,394.5C 348.693,391.692 349.36,389.025 350.5,386.5C 351.5,386.5 352.5,386.5 353.5,386.5C 353.5,385.5 353.5,384.5 353.5,383.5C 356.5,383.833 357.833,382.5 357.5,379.5C 360.5,379.167 362.167,377.5 362.5,374.5C 365.5,374.833 366.833,373.5 366.5,370.5C 369.5,370.167 371.167,368.5 371.5,365.5C 374.5,365.833 375.833,364.5 375.5,361.5C 379.53,360.494 381.197,357.827 380.5,353.5C 383.5,353.833 384.833,352.5 384.5,349.5C 386.5,348.833 388.5,348.167 390.5,347.5C 390.746,344.53 392.412,343.197 395.5,343.5C 395.197,340.412 396.53,338.746 399.5,338.5C 399.5,333.167 399.5,327.833 399.5,322.5C 398.5,322.5 397.5,322.5 396.5,322.5C 396.803,319.412 395.47,317.746 392.5,317.5C 392.116,315.071 391.449,312.737 390.5,310.5C 388.5,309.833 386.5,309.167 384.5,308.5C 384.833,305.5 383.5,304.167 380.5,304.5C 379.627,300.879 378.961,297.212 378.5,293.5C 377.5,293.5 376.5,293.5 375.5,293.5C 374.947,288.518 374.613,283.518 374.5,278.5C 378.04,278.377 380.04,280.043 380.5,283.5C 385.825,284.761 391.158,284.761 396.5,283.5C 396.5,282.5 396.5,281.5 396.5,280.5C 397.5,280.5 398.5,280.5 399.5,280.5C 399.464,286.926 400.131,293.259 401.5,299.5C 404.47,299.746 405.803,301.412 405.5,304.5C 408.588,304.197 410.254,305.53 410.5,308.5C 415.833,308.5 421.167,308.5 426.5,308.5C 426.5,307.5 426.5,306.5 426.5,305.5C 429.588,305.803 431.254,304.47 431.5,301.5C 434.47,301.254 435.803,299.588 435.5,296.5C 436.5,296.5 437.5,296.5 438.5,296.5C 439.449,294.263 440.116,291.929 440.5,289.5C 443.47,289.254 444.803,287.588 444.5,284.5C 446.5,284.167 448.5,283.833 450.5,283.5C 450.833,280.5 452.5,278.833 455.5,278.5C 455.167,275.5 456.5,274.167 459.5,274.5C 459.833,271.5 461.5,269.833 464.5,269.5C 464.833,267.5 465.167,265.5 465.5,263.5C 466.5,263.5 467.5,263.5 468.5,263.5C 468.377,259.96 470.043,257.96 473.5,257.5C 473.167,254.5 474.5,253.167 477.5,253.5C 477.5,252.5 477.5,251.5 477.5,250.5C 480.5,250.167 482.167,248.5 482.5,245.5C 485.5,245.833 486.833,244.5 486.5,241.5C 489.5,241.167 491.167,239.5 491.5,236.5C 492.5,236.5 493.5,236.5 494.5,236.5C 494.167,233.5 495.5,232.167 498.5,232.5C 498.833,229.5 500.5,227.833 503.5,227.5C 503.5,226.5 503.5,225.5 503.5,224.5C 507.466,223.838 511.466,223.505 515.5,223.5C 515.833,219.5 516.167,219.5 516.5,223.5C 520.534,223.505 524.534,223.838 528.5,224.5C 528.833,227.5 530.5,229.167 533.5,229.5C 533.167,232.5 534.5,233.833 537.5,233.5C 537.5,234.5 537.5,235.5 537.5,236.5C 538.5,236.5 539.5,236.5 540.5,236.5C 541.525,240.427 542.192,244.427 542.5,248.5C 546.5,249.167 546.5,249.833 542.5,250.5C 542.192,254.573 541.525,258.573 540.5,262.5C 538.5,262.833 536.5,263.167 534.5,263.5C 534.167,265.5 533.833,267.5 533.5,269.5C 530.5,269.833 528.833,271.5 528.5,274.5C 525.5,274.167 524.167,275.5 524.5,278.5C 521.5,278.833 519.833,280.5 519.5,283.5C 516.5,283.167 515.167,284.5 515.5,287.5C 514.5,287.5 513.5,287.5 512.5,287.5C 513.113,291.512 511.446,293.512 507.5,293.5C 507.5,294.5 507.5,295.5 507.5,296.5C 506.5,296.5 505.5,296.5 504.5,296.5C 504.803,299.588 503.47,301.254 500.5,301.5C 500.254,304.47 498.588,305.803 495.5,305.5C 495.803,308.588 494.47,310.254 491.5,310.5C 491.254,313.47 489.588,314.803 486.5,314.5C 485.908,317.127 485.575,319.794 485.5,322.5C 482.412,322.197 480.746,323.53 480.5,326.5C 479.5,326.5 478.5,326.5 477.5,326.5C 477.5,327.5 477.5,328.5 477.5,329.5C 474.53,329.746 473.197,331.412 473.5,334.5C 470.412,334.197 468.746,335.53 468.5,338.5C 465.53,338.746 464.197,340.412 464.5,343.5C 461.412,343.197 459.746,344.53 459.5,347.5C 456.53,347.746 455.197,349.412 455.5,352.5C 454.5,352.5 453.5,352.5 452.5,352.5C 452.116,354.929 451.449,357.263 450.5,359.5C 448.5,360.167 446.5,360.833 444.5,361.5C 444.833,364.5 443.5,365.833 440.5,365.5C 440.167,368.5 438.5,370.167 435.5,370.5C 435.833,373.5 434.5,374.833 431.5,374.5C 431.167,377.5 429.5,379.167 426.5,379.5C 426.007,381.806 425.674,384.139 425.5,386.5C 424.5,386.5 423.5,386.5 422.5,386.5C 422.167,389.5 420.5,391.167 417.5,391.5C 417.5,392.5 417.5,393.5 417.5,394.5C 414.5,394.167 413.167,395.5 413.5,398.5C 410.5,398.833 408.833,400.5 408.5,403.5C 405.5,403.167 404.167,404.5 404.5,407.5C 401.5,407.833 399.833,409.5 399.5,412.5C 396.5,412.167 395.167,413.5 395.5,416.5C 394.5,416.5 393.5,416.5 392.5,416.5C 392.307,419.308 391.64,421.975 390.5,424.5C 389.5,424.5 388.5,424.5 387.5,424.5C 387.5,430.5 387.5,436.5 387.5,442.5C 390.518,442.704 393.518,443.037 396.5,443.5C 396.5,444.5 396.5,445.5 396.5,446.5C 401.167,446.5 405.833,446.5 410.5,446.5 Z"/></g>
<g><path style="opacity:1" fill="#48e438" d="M 251.5,469.5 C 249.656,471.279 248.99,473.612 249.5,476.5C 248.5,476.5 247.5,476.5 246.5,476.5C 246.803,479.588 245.47,481.254 242.5,481.5C 242.715,483.179 242.048,484.179 240.5,484.5C 239.5,484.5 238.5,484.5 237.5,484.5C 236.836,479.527 236.503,474.527 236.5,469.5C 234.5,468.833 232.5,468.167 230.5,467.5C 230.5,466.5 230.5,465.5 230.5,464.5C 225.848,464.002 221.181,463.669 216.5,463.5C 216.5,462.5 216.5,461.5 216.5,460.5C 213.564,459.594 210.564,458.928 207.5,458.5C 207.833,455.5 206.5,454.167 203.5,454.5C 203.5,453.5 203.5,452.5 203.5,451.5C 200.692,451.307 198.025,450.64 195.5,449.5C 195.662,447.473 195.495,445.473 195,443.5C 193.989,442.663 192.822,442.33 191.5,442.5C 191.5,440.833 191.5,439.167 191.5,437.5C 189.833,437.5 188.167,437.5 186.5,437.5C 186.833,434.5 185.5,433.167 182.5,433.5C 181.224,430.664 180.558,427.664 180.5,424.5C 179.5,424.5 178.5,424.5 177.5,424.5C 177.425,421.794 177.092,419.127 176.5,416.5C 175.5,416.5 174.5,416.5 173.5,416.5C 172.594,413.564 171.928,410.564 171.5,407.5C 170.5,407.5 169.5,407.5 168.5,407.5C 168.5,406.5 168.5,405.5 168.5,404.5C 167.5,404.5 166.5,404.5 165.5,404.5C 165.299,398.491 164.966,392.491 164.5,386.5C 163.5,386.5 162.5,386.5 161.5,386.5C 160.323,379.434 159.656,372.267 159.5,365C 159.997,354.809 160.663,344.643 161.5,334.5C 162.5,334.5 163.5,334.5 164.5,334.5C 164.751,329.493 165.084,324.493 165.5,319.5C 166.5,319.5 167.5,319.5 168.5,319.5C 168.5,317.5 168.5,315.5 168.5,313.5C 169.5,313.5 170.5,313.5 171.5,313.5C 171.928,310.436 172.594,307.436 173.5,304.5C 174.5,304.5 175.5,304.5 176.5,304.5C 177.092,301.873 177.425,299.206 177.5,296.5C 178.5,296.5 179.5,296.5 180.5,296.5C 180.884,294.071 181.551,291.737 182.5,289.5C 185.47,289.254 186.803,287.588 186.5,284.5C 188.167,284.5 189.833,284.5 191.5,284.5C 191.5,285.5 191.5,286.5 191.5,287.5C 193.929,287.884 196.263,288.551 198.5,289.5C 198.5,290.5 198.5,291.5 198.5,292.5C 201.187,292.336 203.854,292.503 206.5,293C 207.337,294.011 207.67,295.178 207.5,296.5C 208.5,296.5 209.5,296.5 210.5,296.5C 210.96,299.957 212.96,301.623 216.5,301.5C 216.5,302.5 216.5,303.5 216.5,304.5C 219.127,305.092 221.794,305.425 224.5,305.5C 224.5,306.5 224.5,307.5 224.5,308.5C 225.833,308.5 227.167,308.5 228.5,308.5C 228.5,310.167 228.5,311.833 228.5,313.5C 231.206,313.575 233.873,313.908 236.5,314.5C 236.197,317.588 237.53,319.254 240.5,319.5C 241.576,322.734 242.243,326.068 242.5,329.5C 245.47,329.746 246.803,331.412 246.5,334.5C 247.5,334.5 248.5,334.5 249.5,334.5C 249.377,338.04 251.043,340.04 254.5,340.5C 254.337,342.857 254.503,345.19 255,347.5C 255.71,348.973 256.876,349.64 258.5,349.5C 258.808,353.573 259.475,357.573 260.5,361.5C 261.5,361.5 262.5,361.5 263.5,361.5C 263.5,364.5 263.5,367.5 263.5,370.5C 264.5,370.5 265.5,370.5 266.5,370.5C 266.887,381.437 266.887,392.437 266.5,403.5C 265.5,403.5 264.5,403.5 263.5,403.5C 263.5,406.5 263.5,409.5 263.5,412.5C 262.5,412.5 261.5,412.5 260.5,412.5C 260.635,418.614 259.969,424.614 258.5,430.5C 257.5,430.5 256.5,430.5 255.5,430.5C 255.261,434.842 254.927,439.176 254.5,443.5C 253.5,443.5 252.5,443.5 251.5,443.5C 250.841,448.814 250.174,454.147 249.5,459.5C 249.683,463.016 250.35,466.349 251.5,469.5 Z"/></g>
<g><path style="opacity:1" fill="#48e438" d="M 404.5,472.5 C 404.5,470.833 404.5,469.167 404.5,467.5C 403.5,467.5 402.5,467.5 401.5,467.5C 401.5,463.167 401.5,458.833 401.5,454.5C 403.833,454.5 406.167,454.5 408.5,454.5C 409.64,451.975 410.307,449.308 410.5,446.5C 415.833,446.5 421.167,446.5 426.5,446.5C 426.5,445.5 426.5,444.5 426.5,443.5C 428.167,443.5 429.833,443.5 431.5,443.5C 431.5,442.167 431.5,440.833 431.5,439.5C 433.737,438.551 436.071,437.884 438.5,437.5C 438.746,434.53 440.412,433.197 443.5,433.5C 443.834,429.352 446.167,427.685 450.5,428.5C 450.5,427.5 450.5,426.5 450.5,425.5C 452.167,425.5 453.833,425.5 455.5,425.5C 455.5,424.167 455.5,422.833 455.5,421.5C 460.606,421.477 465.606,420.811 470.5,419.5C 470.5,418.5 470.5,417.5 470.5,416.5C 471.833,416.5 473.167,416.5 474.5,416.5C 474.5,415.167 474.5,413.833 474.5,412.5C 478.5,412.5 482.5,412.5 486.5,412.5C 486.5,411.5 486.5,410.5 486.5,409.5C 498.807,408.573 511.14,407.907 523.5,407.5C 532.915,407.647 542.248,408.314 551.5,409.5C 551.5,410.5 551.5,411.5 551.5,412.5C 556.833,412.5 562.167,412.5 567.5,412.5C 567.5,413.833 567.5,415.167 567.5,416.5C 569.167,416.5 570.833,416.5 572.5,416.5C 572.5,417.5 572.5,418.5 572.5,419.5C 576.682,419.32 580.682,419.987 584.5,421.5C 584.5,422.833 584.5,424.167 584.5,425.5C 587.5,425.5 590.5,425.5 593.5,425.5C 593.5,426.5 593.5,427.5 593.5,428.5C 596.436,429.406 599.436,430.072 602.5,430.5C 602.5,431.833 602.5,433.167 602.5,434.5C 603.5,434.5 604.5,434.5 605.5,434.5C 605.5,435.5 605.5,436.5 605.5,437.5C 608.436,438.406 611.436,439.072 614.5,439.5C 614.167,442.5 615.5,443.833 618.5,443.5C 619.167,445.5 619.833,447.5 620.5,449.5C 623.779,450.031 625.113,452.031 624.5,455.5C 626.167,455.5 627.833,455.5 629.5,455.5C 629.5,456.5 629.5,457.5 629.5,458.5C 631.5,459.167 633.5,459.833 635.5,460.5C 635.674,462.861 636.007,465.194 636.5,467.5C 639.308,467.693 641.975,468.36 644.5,469.5C 644.674,471.861 645.007,474.194 645.5,476.5C 646.5,476.5 647.5,476.5 648.5,476.5C 648.012,479.711 648.679,482.544 650.5,485C 648.866,485.494 647.199,485.66 645.5,485.5C 645.425,488.206 645.092,490.873 644.5,493.5C 641.794,493.575 639.127,493.908 636.5,494.5C 636.803,497.588 635.47,499.254 632.5,499.5C 632.5,500.833 632.5,502.167 632.5,503.5C 630.833,503.5 629.167,503.5 627.5,503.5C 627.5,504.5 627.5,505.5 627.5,506.5C 626.5,506.5 625.5,506.5 624.5,506.5C 624.5,507.5 624.5,508.5 624.5,509.5C 621.336,509.558 618.336,510.224 615.5,511.5C 615.5,512.5 615.5,513.5 615.5,514.5C 612.031,513.887 610.031,515.221 609.5,518.5C 606.53,518.746 605.197,520.412 605.5,523.5C 601.5,523.833 597.5,524.167 593.5,524.5C 593.5,525.5 593.5,526.5 593.5,527.5C 590.436,527.928 587.436,528.594 584.5,529.5C 584.5,530.5 584.5,531.5 584.5,532.5C 576.5,532.833 568.5,533.167 560.5,533.5C 560.5,534.5 560.5,535.5 560.5,536.5C 554.5,536.5 548.5,536.5 542.5,536.5C 542.5,537.5 542.5,538.5 542.5,539.5C 536.833,539.5 531.167,539.5 525.5,539.5C 525.5,538.5 525.5,537.5 525.5,536.5C 520.5,536.5 515.5,536.5 510.5,536.5C 510.5,535.5 510.5,534.5 510.5,533.5C 507.214,532.793 503.881,532.46 500.5,532.5C 500.5,531.5 500.5,530.5 500.5,529.5C 497.5,529.5 494.5,529.5 491.5,529.5C 491.785,527.712 491.452,526.045 490.5,524.5C 487.916,523.607 485.249,523.274 482.5,523.5C 482.5,522.5 482.5,521.5 482.5,520.5C 479.692,520.307 477.025,519.64 474.5,518.5C 474.5,517.5 474.5,516.5 474.5,515.5C 471.031,516.113 469.031,514.779 468.5,511.5C 465.564,510.594 462.564,509.928 459.5,509.5C 459.5,508.5 459.5,507.5 459.5,506.5C 458.5,506.5 457.5,506.5 456.5,506.5C 456.241,502.932 454.241,501.599 450.5,502.5C 450.5,501.5 450.5,500.5 450.5,499.5C 448.263,498.551 445.929,497.884 443.5,497.5C 443.5,495.167 443.5,492.833 443.5,490.5C 440.692,490.307 438.025,489.64 435.5,488.5C 435.241,484.932 433.241,483.599 429.5,484.5C 429.5,483.5 429.5,482.5 429.5,481.5C 426.53,481.254 425.197,479.588 425.5,476.5C 424.5,476.5 423.5,476.5 422.5,476.5C 422.5,475.167 422.5,473.833 422.5,472.5C 416.5,472.5 410.5,472.5 404.5,472.5 Z"/></g>
<g><path style="opacity:1" fill="#fefffe" d="M 684.5,734.5 C 685.833,735.167 685.833,735.167 684.5,734.5 Z"/></g>
<g><path style="opacity:1" fill="#fefffe" d="M 671.5,740.5 C 670.566,739.432 670.232,738.099 670.5,736.5C 672.39,736.297 673.89,736.963 675,738.5C 675.333,737.833 675.667,737.167 676,736.5C 676.667,738.167 676.667,739.833 676,741.5C 674.903,739.947 673.57,738.614 672,737.5C 671.517,738.448 671.351,739.448 671.5,740.5 Z"/></g>
<g><path style="opacity:1" fill="#fefffe" d="M 693.5,743.5 C 692.387,742.054 692.22,740.387 693,738.5C 694.635,739.849 696.135,739.682 697.5,738C 693.774,736.957 694.107,736.457 698.5,736.5C 698.616,739.91 696.95,741.244 693.5,740.5C 693.5,741.5 693.5,742.5 693.5,743.5 Z"/></g>
<g><path style="opacity:1" fill="#fefffe" d="M 679.5,737.5 C 680.5,737.5 681.5,737.5 682.5,737.5C 682.587,740.598 682.087,740.932 681,738.5C 680.667,738.833 680.333,739.167 680,739.5C 680.077,740.738 679.911,741.738 679.5,742.5C 678.334,740.833 678.334,739.166 679.5,737.5 Z"/></g>
<g><path style="opacity:1" fill="#fefffe" d="M 688.5,738.5 C 688.897,737.475 689.563,737.308 690.5,738C 689.906,738.464 689.239,738.631 688.5,738.5 Z"/></g>
<g><path style="opacity:1" fill="#fefffe" d="M 684.5,738.5 C 685.573,739.251 685.74,740.251 685,741.5C 684.517,740.552 684.351,739.552 684.5,738.5 Z"/></g>
<g><path style="opacity:1" fill="#fefffe" d="M 688.5,738.5 C 689.573,740.653 689.573,742.653 688.5,744.5C 687.709,742.309 687.709,740.309 688.5,738.5 Z"/></g>
<g><path style="opacity:1" fill="#fefffe" d="M 671.5,740.5 C 672.525,740.897 672.692,741.563 672,742.5C 671.536,741.906 671.369,741.239 671.5,740.5 Z"/></g>
<g><path style="opacity:1" fill="#fefffe" d="M 693.5,743.5 C 695.857,743.663 698.19,743.497 700.5,743C 701.126,742.25 701.626,741.416 702,740.5C 702.684,741.784 702.517,742.951 701.5,744C 698.633,744.801 695.966,744.634 693.5,743.5 Z"/></g>
<g><path style="opacity:1" fill="#fefffe" d="M 688.5,744.5 C 688.103,745.525 687.437,745.692 686.5,745C 687.094,744.536 687.761,744.369 688.5,744.5 Z"/></g>
</svg>
